<?xml version="1.0"?>
<svg width="1280" height="643" xmlns="http://www.w3.org/2000/svg" xmlns:svg="http://www.w3.org/2000/svg" xmlns:xlink="http://www.w3.org/1999/xlink" version="1.1">
 <g class="layer">
  <title>Layer 1</title>
  <rect fill="#101011" height="63" id="svg_237" width="84" x="151" y="349.33"/>
  <rect fill="#101011" height="58" id="svg_236" width="87" x="266" y="352.33"/>
  <rect fill="#101011" height="58" id="svg_235" width="87" x="264" y="435.33"/>
  <ellipse cx="116" cy="407.33" fill="#000000" id="svg_229" rx="33" ry="47"/>
  <ellipse cx="382" cy="356.33" fill="#000000" id="svg_230" rx="28" ry="45"/>
  <path d="m134.93,119.82c1.06,-0.01 2.11,-0.01 3.2,-0.02c3.51,-0.02 7.02,-0.01 10.53,0c2.53,-0.01 5.05,-0.01 7.58,-0.02c6.14,-0.03 12.28,-0.03 18.41,-0.02c4.99,0.01 9.98,0.01 14.97,0c0.71,0 1.43,0 2.16,0c1.45,0 2.89,-0.01 4.34,-0.01c13.54,-0.01 27.08,-0.01 40.63,0.01c12.37,0.02 24.75,0 37.13,-0.03c12.72,-0.03 25.45,-0.04 38.18,-0.03c1.44,0 2.88,0 4.32,0c0.71,0 1.42,0.01 2.15,0.01c4.98,0 9.96,-0.01 14.94,-0.03c6.71,-0.02 13.42,-0.01 20.13,0.02c2.46,0 4.92,0 7.38,-0.02c3.36,-0.01 6.73,0 10.09,0.03c0.97,-0.02 1.94,-0.03 2.93,-0.04c8.44,0.12 15.42,2.93 21.56,8.79c3.42,4.03 3.57,6.7 3.58,11.82c0.01,1.24 0.01,2.48 0.02,3.76c0,1.38 0,2.76 0,4.14c0.01,1.45 0.01,2.9 0.02,4.35c0.01,3.95 0.02,7.89 0.02,11.83c0,2.46 0.01,4.92 0.01,7.39c0.02,7.7 0.03,15.41 0.03,23.11c0,8.9 0.02,17.79 0.05,26.68c0.02,6.88 0.03,13.75 0.03,20.63c0,4.11 0.01,8.21 0.03,12.32c0.01,3.86 0.02,7.72 0.01,11.59c0,1.41 0,2.83 0.01,4.25c0.01,1.93 0.01,3.87 0,5.8c0,1.09 0,2.17 0,3.29c-0.42,3.3 -1.48,5.21 -3.37,7.91c-1.32,-0.33 -2.64,-0.66 -4,-1c0.33,1.32 0.66,2.64 1,4c-2.31,0.99 -4.62,1.98 -7,3c0.19,1.12 0.37,2.23 0.56,3.38c0.44,3.62 0.44,3.62 -0.56,5.62c-0.21,2.08 -0.37,4.17 -0.5,6.25c-0.08,1.25 -0.16,2.5 -0.25,3.79c-0.08,1.31 -0.16,2.62 -0.25,3.96c-0.16,2.59 -0.33,5.17 -0.5,7.75c-0.07,1.15 -0.14,2.3 -0.22,3.49c-0.28,2.76 -0.28,2.76 -1.28,4.76c-0.21,2 -0.37,4 -0.5,6c-0.08,1.2 -0.16,2.4 -0.25,3.63c-0.08,1.26 -0.16,2.52 -0.25,3.81c-0.16,2.48 -0.33,4.96 -0.5,7.44c-0.07,1.1 -0.14,2.2 -0.22,3.34c-0.28,2.78 -0.28,2.78 -1.28,5.78c0.55,0.26 -10.33,-95.55 1.65,0.78c-8.55,102.07 -9.58,102.14 -10.65,102.22c-1.25,2.51 -1.06,4.21 -1,7c0.11,4.78 0.11,4.78 -1,7c-0.21,2.02 -0.37,4.05 -0.5,6.07c-0.08,1.21 -0.16,2.42 -0.25,3.66c-0.17,2.56 -0.33,5.12 -0.5,7.69c-0.08,1.2 -0.16,2.41 -0.25,3.65c-0.07,1.11 -0.14,2.23 -0.22,3.37c-0.28,2.56 -0.28,2.56 -1.28,3.56c-0.23,2.02 -0.41,4.04 -0.56,6.07c-0.09,1.1 -0.17,2.21 -0.26,3.34c-0.06,0.86 -0.12,1.71 -0.18,2.59c-1.64,0.07 -1.64,0.07 -3.31,0.13c-5.97,0.76 -10.57,3.9 -15.69,6.87c-7.2,4.01 -14.36,7.92 -22.08,10.82c-10.89,4.42 -21.45,9.86 -31.92,15.18c-2.1,1.07 -4.21,2.13 -6.31,3.19c-0.97,0.49 -1.93,0.98 -2.93,1.48c-1.7,0.82 -3.42,1.6 -5.17,2.29c-3.31,1.34 -6.47,2.93 -9.65,4.54c-0.61,0.31 -1.23,0.62 -1.86,0.94c-3.7,1.86 -3.7,1.86 -7.35,3.81c-2.46,1.07 -4.18,0.36 -6.73,-0.25c-0.66,0.33 -1.32,0.66 -2,1c-2.33,-1.14 -4.56,-2.33 -6.81,-3.62c-4.77,-2.64 -9.42,-4.97 -14.56,-6.81c-6,-2.19 -11.44,-5.01 -17.03,-8.05c-5.83,-3.15 -11.77,-6.02 -17.8,-8.78c-3.31,-1.51 -6.48,-3.1 -9.6,-4.97c-3.03,-2.01 -3.03,-2.01 -6.2,-1.77c-0.33,-0.66 -0.66,-1.32 -1,-2c-2.23,-1.35 -2.23,-1.35 -4.87,-2.62c-0.89,-0.45 -1.77,-0.89 -2.68,-1.35c-2.47,-1.22 -2.47,-1.22 -5.45,-1.03c0,-0.66 0,-1.32 0,-2c-0.57,-0.12 -1.14,-0.25 -1.72,-0.38c-4.13,-1.12 -7.91,-3.06 -11.78,-4.87c-0.85,-0.38 -1.71,-0.76 -2.59,-1.16c-4.8,-2.23 -7.9,-4.07 -10.91,-8.59c-0.52,-0.45 -1.03,-0.9 -1.56,-1.36c-1.87,-2.12 -1.9,-3.4 -2.06,-6.2c-0.06,-0.92 -0.12,-1.84 -0.18,-2.79c-0.05,-0.99 -0.1,-1.98 -0.15,-3c-0.06,-1.02 -0.12,-2.03 -0.19,-3.08c-0.19,-3.25 -0.37,-6.5 -0.55,-9.75c-0.13,-2.21 -0.26,-4.41 -0.39,-6.61c-1.67,-16.26 -2.41,-16.32 -3.18,-16.37c-6.05,-106.13 -6.36,-110.42 -6.68,-114.71c-0.08,-1.22 -0.17,-2.45 -0.26,-3.71c-0.09,-1.16 -0.18,-2.33 -0.26,-3.53c-0.08,-1.08 -0.16,-2.16 -0.24,-3.27c-0.15,-2.59 -0.15,-2.59 -1.3,-4.62c-0.2,-2.56 -0.35,-5.1 -0.46,-7.67c-0.08,-1.57 -0.16,-3.13 -0.24,-4.7c-0.12,-2.47 -0.24,-4.94 -0.35,-7.4c-0.11,-2.39 -0.23,-4.77 -0.35,-7.15c-0.05,-1.1 -0.05,-1.1 -0.09,-2.22c-0.27,-5.1 -0.83,-9.04 -4.35,-12.85c-1.39,-1.25 -2.79,-2.5 -4.19,-3.75c-5.9,-6.75 -5.4,-14.03 -5.36,-22.58c0,-1.34 -0.01,-2.69 -0.01,-4.03c-0.02,-3.64 -0.01,-7.28 0,-10.92c0,-3.83 0,-7.65 -0.01,-11.47c0,-6.41 0,-12.83 0.02,-19.25c0.02,-7.4 0.01,-14.8 -0.01,-22.21c-0.01,-6.37 -0.01,-12.74 0,-19.11c0,-3.79 0,-7.59 -0.01,-11.39c-0.01,-3.57 0,-7.15 0.02,-10.72c0,-1.93 -0.01,-3.85 -0.02,-5.78c0.06,-8.01 0.45,-15.84 5.97,-22.11c7.08,-6.08 15.34,-7.28 24.37,-7.2zm-20.34,16.44c-2.67,5.39 -2.13,11.42 -2.08,17.29c0,1.33 0,2.67 -0.01,4c-0.01,3.61 0.01,7.22 0.03,10.83c0.02,3.78 0.01,7.56 0.01,11.34c0,6.34 0.02,12.68 0.05,19.03c0.03,7.33 0.04,14.66 0.04,22c0,7.81 0.01,15.63 0.03,23.44c0,2.25 0.01,4.5 0.01,6.75c0,4.19 0.02,8.38 0.04,12.57c0,1.24 0,2.49 0,3.77c0.01,1.14 0.01,2.28 0.02,3.46c0.01,0.99 0.01,1.98 0.01,3c0.27,2.66 0.9,4.31 2.26,6.59c0.66,0 1.32,0 2,0c0.25,0.64 0.5,1.27 0.75,1.93c1.05,2.19 1.05,2.19 3.04,2.89c6.01,1.15 11.79,1.47 17.9,1.45c1.04,0 2.08,0 3.16,0.01c3.47,0.01 6.94,0 10.41,0c2.49,0 4.99,0.01 7.49,0.01c6.06,0.02 12.12,0.02 18.18,0.02c4.93,0 9.86,0 14.78,0c1.06,0 1.06,0 2.13,0c1.43,0 2.86,0.01 4.28,0.01c13.36,0.01 26.73,0.01 40.09,0c12.22,-0.01 24.45,0.01 36.67,0.02c12.56,0.02 25.12,0.03 37.68,0.03c7.05,0 14.1,0 21.15,0.01c6.62,0.02 13.24,0.01 19.86,0c2.44,0 4.87,0 7.3,0.01c3.32,0.01 6.63,0 9.95,-0.01c1.45,0.01 1.45,0.01 2.93,0.02c6.5,-0.05 9.86,-0.97 14.53,-5.71c2.02,-3.16 2.22,-4.88 2.22,-8.61c0.01,-1.18 0.02,-2.37 0.03,-3.59c-0.01,-1.29 -0.02,-2.59 -0.03,-3.92c0.01,-1.38 0.01,-2.76 0.02,-4.14c0.01,-3.75 0,-7.49 -0.02,-11.24c-0.01,-3.92 0,-7.85 0,-11.77c0,-6.59 -0.01,-13.17 -0.03,-19.76c-0.03,-7.61 -0.03,-15.22 -0.02,-22.84c0.01,-7.32 0,-14.65 -0.01,-21.98c-0.01,-3.11 -0.01,-6.23 0,-9.35c0,-3.67 -0.01,-7.34 -0.03,-11.01c-0.01,-1.99 0,-3.97 0.01,-5.96c-0.02,-1.78 -0.02,-1.78 -0.03,-3.59c0,-1.03 -0.01,-2.06 -0.01,-3.12c-0.46,-3.38 -1.25,-5.14 -3.38,-7.81c-5.21,-3.67 -10.34,-3.42 -16.47,-3.38c-1.05,-0.01 -2.11,-0.01 -3.19,-0.02c-3.53,-0.01 -7.06,-0.01 -10.59,0c-2.53,-0.01 -5.07,-0.01 -7.6,-0.02c-6.16,-0.02 -12.32,-0.02 -18.48,-0.01c-5.01,0 -10.02,0 -15.03,-0.01c-1.07,0 -1.07,0 -2.16,0c-1.45,0 -2.9,0 -4.35,0c-13.58,-0.02 -27.17,-0.01 -40.75,0c-12.42,0.01 -24.85,0 -37.27,-0.03c-12.76,-0.02 -25.52,-0.03 -38.28,-0.02c-7.17,0 -14.33,0 -21.49,-0.02c-6.74,-0.02 -13.47,-0.01 -20.21,0.01c-2.47,0 -4.94,0 -7.41,-0.01c-3.38,-0.02 -6.75,0 -10.12,0.01c-0.98,-0.01 -1.96,-0.02 -2.97,-0.03c-7.43,0.08 -12.14,1.51 -17.04,7.46zm44.41,158.07c0.33,0.99 0.66,1.98 1,3c2.58,1.12 5.06,2.03 7.73,2.89c0.78,0.26 1.56,0.52 2.36,0.78c1.66,0.55 3.32,1.1 4.98,1.63c2.53,0.82 5.05,1.66 7.57,2.5c1.61,0.53 3.22,1.06 4.84,1.59c0.74,0.25 1.49,0.49 2.26,0.75c3.42,1.1 6.66,1.98 10.23,2.4c1,0.16 2,0.31 3.03,0.46c0.5,0.99 0.5,0.99 1,2c2.24,0.78 2.24,0.78 4.94,1.38c3.83,0.98 7.42,2.09 11.06,3.62c16.74,5.22 19.96,6.61 23.22,8.14c9.12,2.84 15.95,1.41 24.78,-1.82c1.52,-0.53 1.52,-0.53 3.08,-1.07c4.68,-1.64 9.3,-3.38 13.89,-5.26c6.78,-2.75 13.77,-4.82 20.75,-6.99c5.8,-1.82 11.45,-3.8 17.08,-6.12c2.89,-1.15 5.83,-2.06 8.83,-2.94c4.88,-1.46 9.63,-3.07 14.37,-4.94c-2.45,-2.44 -3.76,-2.23 -7.1,-2.25c-0.71,0 -1.43,0.01 -2.16,0.01c-1.14,0 -1.14,0 -2.3,0c-2.55,0 -5.1,0.01 -7.65,0.02c-1.82,0 -3.65,0 -5.47,0c-4.96,0 -9.92,0.01 -14.88,0.02c-5.18,0.01 -10.36,0.02 -15.54,0.02c-9.81,0 -19.63,0.02 -29.44,0.04c-11.17,0.02 -22.34,0.03 -33.51,0.04c-22.98,0.02 -45.97,0.06 -68.95,0.1zm-30,3c0.26,5.38 0.53,10.76 0.8,16.13c0.09,1.83 0.18,3.66 0.27,5.49c0.13,2.62 0.26,5.25 0.39,7.88c0.04,0.82 0.08,1.64 0.12,2.48c0.13,4.15 0.13,4.15 1.42,8.02c0.13,1.81 0.2,3.62 0.25,5.42c0.05,1.09 0.11,2.18 0.16,3.31c9.79,119.8 9.94,122.31 10.05,124.84c0.08,1.56 0.16,3.11 0.24,4.66c0.12,2.44 0.24,4.89 0.35,7.33c0.11,2.36 0.23,4.72 0.35,7.08c0.03,0.72 0.06,1.43 0.09,2.17c0.3,8.66 0.3,8.66 4.23,15.93c0.68,0.33 1.36,0.67 2.05,1.01c0.75,0.38 1.49,0.77 2.25,1.16c0.78,0.36 1.56,0.72 2.36,1.09c1.15,0.59 1.15,0.59 2.32,1.2c3.84,1.9 5.9,2.8 10.3,2.8c0,0.66 0,1.32 0,2c1.75,0.63 1.75,0.63 3.53,1.27c4.14,1.56 8.04,3.41 11.97,5.42c1.41,0.71 2.82,1.43 4.22,2.14c1.07,0.54 1.07,0.54 2.16,1.09c13.35,6.79 26.77,13.45 40.5,19.46c3.62,1.62 3.62,1.62 6.62,3.62c0.99,0 1.98,0 3,0c0,0.66 0,1.32 0,2c5.94,1.98 5.94,1.98 12,4c0.02,-7.36 0.04,-14.73 0.05,-22.1c0.01,-2.51 0.02,-5.02 0.03,-7.53c0.01,-3.6 0.01,-7.2 0.02,-10.8c0,-1.12 0.01,-2.25 0.01,-3.41c0,-1.56 0,-1.56 0,-3.15c0.01,-0.92 0.01,-1.84 0.01,-2.79c0.03,-2.26 0.03,-2.26 -1.12,-4.22c-0.1,-2.13 -0.14,-4.27 -0.15,-6.41c-0.01,-0.67 -0.01,-1.33 -0.01,-2.02c-0.02,-2.24 -0.02,-4.48 -0.03,-6.72c-0.01,-1.61 -0.02,-3.21 -0.02,-4.81c-0.02,-3.46 -0.04,-6.92 -0.05,-10.37c-0.02,-5.46 -0.05,-10.93 -0.08,-16.39c-0.06,-12.58 -0.12,-25.16 -0.17,-37.74c-0.05,-11.52 -0.11,-23.05 -0.17,-34.58c-0.03,-5.43 -0.05,-10.86 -0.07,-16.3c-0.01,-3.37 -0.03,-6.75 -0.05,-10.12c-0.01,-1.57 -0.01,-3.14 -0.02,-4.71c0,-2.14 -0.01,-4.27 -0.03,-6.41c-0.01,-1.8 -0.01,-1.8 -0.01,-3.63c0.05,-2.74 0.05,-2.74 -1.14,-4.79c-2.53,-1.03 -2.53,-1.03 -5.56,-1.93c-50.8,-16.95 -57.1,-18.88 -63.29,-21.28c-3.85,-1.4 -7.78,-2.54 -11.71,-3.72c-8.28,-2.56 -16.4,-5.5 -24.51,-8.55c-0.79,-0.29 -1.59,-0.59 -2.41,-0.89c-0.7,-0.27 -1.4,-0.53 -2.12,-0.8c-3.1,-1.07 -6.24,-1.94 -9.4,-2.83zm241.19,1.25c-4.55,2.02 -9.3,3.35 -14.06,4.79c-3.07,0.95 -6.05,2.02 -9.05,3.19c-2.63,0.98 -5.29,1.84 -7.95,2.71c-3.8,1.25 -7.5,2.59 -11.19,4.13c-4.33,1.78 -8.69,2.98 -13.22,4.15c-3.54,1.02 -6.86,2.4 -10.26,3.82c-3.26,1.28 -6.59,2.22 -9.96,3.18c-2.55,0.8 -4.97,1.76 -7.44,2.78c-3.48,1.44 -6.91,2.56 -10.56,3.5c-11.63,3.01 -11.63,3.01 -21.5,9.5c-0.1,2.75 -0.14,5.48 -0.13,8.23c-0.01,0.87 -0.01,1.74 -0.01,2.64c-0.01,2.95 -0.01,5.9 -0.01,8.85c0,2.1 0,4.2 -0.01,6.31c0,5.73 -0.01,11.46 -0.01,17.19c0,4.78 0,9.55 -0.01,14.33c0,11.27 -0.01,22.53 -0.01,33.8c0.01,11.63 -0.01,23.27 -0.02,34.91c-0.01,9.98 -0.02,19.95 -0.02,29.93c0,5.97 0,11.93 -0.01,17.9c-0.01,5.61 -0.01,11.21 0,16.82c0,2.07 -0.01,4.13 -0.01,6.19c-0.01,2.81 0,5.62 0,8.43c0,0.82 -0.01,1.64 -0.01,2.49c0.02,3.86 0.07,5.7 2.26,8.98c0,-0.66 0,-1.32 0,-2c0.84,-0.09 1.68,-0.18 2.54,-0.27c3.98,-0.83 7.27,-2.41 10.84,-4.29c0.64,-0.33 1.28,-0.66 1.94,-1c1.56,-0.8 3.12,-1.62 4.68,-2.44c0,-0.66 0,-1.32 0,-2c1.07,-0.18 1.07,-0.18 2.17,-0.37c12,-2.66 23.41,-9.83 34.31,-15.4c1.04,-0.53 2.07,-1.06 3.15,-1.6c1.34,-0.69 1.34,-0.69 2.72,-1.4c2.83,-1.31 5.68,-2.29 8.65,-3.23c0,-0.66 0,-1.32 0,-2c1.32,-0.16 1.32,-0.16 2.67,-0.32c3.39,-0.69 5.61,-1.7 8.58,-3.43c5.5,-3.16 5.5,-3.16 8.27,-4.08c2.96,-1.1 5.08,-2.09 7.48,-4.17c1.69,-4.55 1.85,-9.05 2.06,-13.87c0.1,-1.3 0.19,-2.6 0.29,-3.94c0.26,-3.73 0.46,-7.46 0.65,-11.19c0.16,-2.44 0.33,-4.89 0.5,-7.34c0.12,-1.76 0.2,-3.53 0.29,-5.3c0.21,-2.36 0.21,-2.36 1.21,-3.36c13.54,-106.17 11.12,-122.31 11,-132c0.66,0 1.32,0 2,0c0.29,-4.02 0.57,-8.04 0.85,-12.06c0.1,-1.36 0.2,-2.73 0.3,-4.09c0.14,-1.97 0.27,-3.94 0.41,-5.92c0.13,-1.77 0.13,-1.77 0.26,-3.58c0.17,-3.13 0.21,-6.22 0.18,-9.35c-2.21,-0.13 -2.21,-0.13 -4.81,1.25zm-11.19,166.75c1,3 1,3 1,3l-1,-3z" fill="#ffffff" id="svg_1"/>
  <path d="m132.93,120.82c1.06,-0.01 2.11,-0.01 3.2,-0.02c3.51,-0.02 7.02,-0.01 10.53,0c2.53,-0.01 5.05,-0.01 7.58,-0.02c6.14,-0.03 12.28,-0.03 18.41,-0.02c4.99,0.01 9.98,0.01 14.97,0c0.71,0 1.43,0 2.16,0c1.45,0 2.89,-0.01 4.34,-0.01c13.54,-0.01 27.08,-0.01 40.63,0.01c12.37,0.02 24.75,0 37.13,-0.03c12.72,-0.03 25.45,-0.04 38.18,-0.03c1.44,0 2.88,0 4.32,0c0.71,0 1.42,0.01 2.15,0.01c4.98,0 9.96,-0.01 14.94,-0.03c6.71,-0.02 13.42,-0.01 20.13,0.02c2.46,0 4.92,0 7.38,-0.02c3.36,-0.01 6.73,0 10.09,0.03c0.97,-0.02 1.94,-0.03 2.93,-0.04c8.44,0.12 15.42,2.93 21.56,8.79c3.42,4.03 3.57,6.7 3.58,11.82c0.01,1.24 0.01,2.48 0.02,3.76c0,1.38 0,2.76 0,4.14c0.01,1.45 0.01,2.9 0.02,4.35c0.01,3.95 0.02,7.89 0.02,11.83c0,2.46 0.01,4.92 0.01,7.39c0.02,7.7 0.03,15.41 0.03,23.11c0,8.9 0.02,17.79 0.05,26.68c0.02,6.88 0.03,13.75 0.03,20.63c0,4.11 0.01,8.21 0.03,12.32c0.01,3.86 0.02,7.72 0.01,11.59c0,1.41 0,2.83 0.01,4.25c0.01,1.93 0.01,3.87 0,5.8c0,1.09 0,2.17 0,3.29c-0.42,3.3 -1.48,5.21 -3.37,7.91c-1.32,-0.33 -2.64,-0.66 -4,-1c0.33,1.32 0.66,2.64 1,4c-5.67,2.41 -10.2,3.45 -16.33,3.45c-0.76,0.01 -1.52,0.02 -2.3,0.04c-2.39,0.04 -4.79,0.06 -7.18,0.08c-2.41,0.02 -4.83,0.05 -7.24,0.09c-1.49,0.02 -2.99,0.04 -4.48,0.04c-3.7,0.06 -5.31,0.2 -8.47,2.3c-0.99,-0.33 -1.98,-0.66 -3,-1c-2.47,-0.1 -4.91,-0.15 -7.38,-0.15c-1.14,-0.01 -1.14,-0.01 -2.3,-0.02c-2.55,-0.01 -5.1,-0.02 -7.64,-0.03c-1.83,-0.01 -3.65,-0.02 -5.47,-0.03c-4.96,-0.03 -9.91,-0.05 -14.87,-0.07c-5.18,-0.02 -10.36,-0.05 -15.53,-0.07c-9.81,-0.05 -19.62,-0.1 -29.42,-0.14c-11.16,-0.05 -22.33,-0.11 -33.49,-0.16c-22.97,-0.12 -45.93,-0.22 -68.9,-0.33c-0.33,0.66 -0.66,1.32 -1,2c-0.83,-0.32 -1.66,-0.65 -2.51,-0.98c-3.85,-1.12 -7.33,-1.27 -11.29,-1.21c-0.73,0 -1.45,0.01 -2.2,0.01c-2.29,0.01 -4.58,0.03 -6.87,0.06c-1.57,0.01 -3.13,0.02 -4.69,0.03c-3.82,0.02 -7.63,0.05 -11.44,0.09c0,-0.66 0,-1.32 0,-2c-0.59,-0.1 -1.17,-0.2 -1.78,-0.3c-2.63,-0.82 -3.84,-1.88 -5.78,-3.82c-0.87,-0.84 -0.87,-0.84 -1.76,-1.7c-5.42,-7.02 -5.11,-13.93 -5.07,-22.5c0,-1.34 -0.01,-2.69 -0.01,-4.03c-0.02,-3.64 -0.01,-7.28 0,-10.92c0,-3.83 0,-7.65 -0.01,-11.47c0,-6.41 0,-12.83 0.02,-19.25c0.02,-7.4 0.01,-14.8 -0.01,-22.21c-0.01,-6.37 -0.01,-12.74 0,-19.11c0,-3.79 0,-7.59 -0.01,-11.39c-0.01,-3.57 0,-7.15 0.02,-10.72c0,-1.93 -0.01,-3.85 -0.02,-5.78c0.06,-8.01 0.45,-15.84 5.97,-22.11c7.08,-6.08 15.34,-7.28 24.37,-7.2zm-20.34,16.44c-2.67,5.39 -2.13,11.42 -2.08,17.29c0,1.33 0,2.67 -0.01,4c-0.01,3.61 0.01,7.22 0.03,10.83c0.02,3.78 0.01,7.56 0.01,11.34c0,6.34 0.02,12.68 0.05,19.03c0.03,7.33 0.04,14.66 0.04,22c0,7.81 0.01,15.63 0.03,23.44c0,2.25 0.01,4.5 0.01,6.75c0,4.19 0.02,8.38 0.04,12.57c0,1.24 0,2.49 0,3.77c0.01,1.14 0.01,2.28 0.02,3.46c0.01,0.99 0.01,1.98 0.01,3c0.27,2.66 0.9,4.31 2.26,6.59c0.66,0 1.32,0 2,0c0.25,0.64 0.5,1.27 0.75,1.93c1.05,2.19 1.05,2.19 3.04,2.89c6.01,1.15 11.79,1.47 17.9,1.45c1.04,0 2.08,0 3.16,0.01c3.47,0.01 6.94,0 10.41,0c2.49,0 4.99,0.01 7.49,0.01c6.06,0.02 12.12,0.02 18.18,0.02c4.93,0 9.86,0 14.78,0c1.06,0 1.06,0 2.13,0c1.43,0 2.86,0.01 4.28,0.01c13.36,0.01 26.73,0.01 40.09,0c12.22,-0.01 24.45,0.01 36.67,0.02c12.56,0.02 25.12,0.03 37.68,0.03c7.05,0 14.1,0 21.15,0.01c6.62,0.02 13.24,0.01 19.86,0c2.44,0 4.87,0 7.3,0.01c3.32,0.01 6.63,0 9.95,-0.01c1.45,0.01 1.45,0.01 2.93,0.02c6.5,-0.05 9.86,-0.97 14.53,-5.71c2.02,-3.16 2.22,-4.88 2.22,-8.61c0.01,-1.18 0.02,-2.37 0.03,-3.59c-0.01,-1.29 -0.02,-2.59 -0.03,-3.92c0.01,-1.38 0.01,-2.76 0.02,-4.14c0.01,-3.75 0,-7.49 -0.02,-11.24c-0.01,-3.92 0,-7.85 0,-11.77c0,-6.59 -0.01,-13.17 -0.03,-19.76c-0.03,-7.61 -0.03,-15.22 -0.02,-22.84c0.01,-7.32 0,-14.65 -0.01,-21.98c-0.01,-3.11 -0.01,-6.23 0,-9.35c0,-3.67 -0.01,-7.34 -0.03,-11.01c-0.01,-1.99 0,-3.97 0.01,-5.96c-0.02,-1.78 -0.02,-1.78 -0.03,-3.59c0,-1.03 -0.01,-2.06 -0.01,-3.12c-0.46,-3.38 -1.25,-5.14 -3.38,-7.81c-5.21,-3.67 -10.34,-3.42 -16.47,-3.38c-1.05,-0.01 -2.11,-0.01 -3.19,-0.02c-3.53,-0.01 -7.06,-0.01 -10.59,0c-2.53,-0.01 -5.07,-0.01 -7.6,-0.02c-6.16,-0.02 -12.32,-0.02 -18.48,-0.01c-5.01,0 -10.02,0 -15.03,-0.01c-1.07,0 -1.07,0 -2.16,0c-1.45,0 -2.9,0 -4.35,0c-13.58,-0.02 -27.17,-0.01 -40.75,0c-12.42,0.01 -24.85,0 -37.27,-0.03c-12.76,-0.02 -25.52,-0.03 -38.28,-0.02c-7.17,0 -14.33,0 -21.49,-0.02c-6.74,-0.02 -13.47,-0.01 -20.21,0.01c-2.47,0 -4.94,0 -7.41,-0.01c-3.38,-0.02 -6.75,0 -10.12,0.01c-0.98,-0.01 -1.96,-0.02 -2.97,-0.03c-7.43,0.08 -12.14,1.51 -17.04,7.46z" fill="#ffffff" id="svg_3"/>
  <path d="m212.67,438.16c2.01,-0.01 4.03,-0.02 6.04,-0.03c2.83,-0.02 5.66,-0.02 8.49,-0.02c1.27,-0.01 1.27,-0.01 2.57,-0.02c3.93,0.01 5.89,0.02 9.23,2.25c0.36,2.33 0.36,2.33 0.34,5.27c0,1.12 0,2.24 0,3.39c-0.01,1.17 -0.03,2.35 -0.04,3.56c-0.01,1.08 -0.01,2.16 -0.01,3.27c-0.02,4.05 -0.06,8.09 -0.1,12.13c-0.06,9.04 -0.12,18.07 -0.19,27.38c-28.38,0 -56.76,0 -86,0c-0.97,-2.91 -1.12,-4.76 -1.13,-7.78c0,-0.97 0,-1.93 -0.01,-2.93c0.01,-1.04 0.01,-2.09 0.01,-3.16c0,-1.08 0,-2.15 0,-3.26c0,-2.27 0,-4.54 0,-6.81c0.01,-3.48 0,-6.96 0,-10.44c0,-2.21 0,-4.41 0,-6.62c0,-1.04 0,-2.08 -0.01,-3.16c0.01,-0.97 0.01,-1.94 0.01,-2.94c0,-0.85 0.01,-1.7 0.01,-2.58c0.12,-2.24 0.5,-4.18 1.12,-6.32c19.89,-0.66 39.77,-1.12 59.67,-1.18zm24.33,10.18c-0.33,1.32 -0.66,2.64 -1,4c0.66,0 1.32,0 2,0c-0.33,-1.32 -0.66,-2.64 -1,-4zm0,8c-0.33,1.65 -0.66,3.3 -1,5c0.66,0 1.32,0 2,0c0,-1.65 0,-3.3 0,-5c-0.33,0 -0.66,0 -1,0zm0,9c-0.33,1.65 -0.66,3.3 -1,5c0.66,0 1.32,0 2,0c0,-1.65 0,-3.3 0,-5c-0.33,0 -0.66,0 -1,0zm0,9c-0.33,1.65 -0.66,3.3 -1,5c0.66,0 1.32,0 2,0c0,-1.65 0,-3.3 0,-5c-0.33,0 -0.66,0 -1,0zm0,9c-0.33,1.32 -0.66,2.64 -1,4c0.66,0 1.32,0 2,0c-0.33,-1.32 -0.66,-2.64 -1,-4z" fill="#FDFDFD" id="svg_5"/>
  <path d="m863.88,171.2c0.98,0 1.97,0 2.98,0c1.04,0 2.08,0 3.14,0.01c1.56,-0.01 1.56,-0.01 3.15,-0.01c0.98,0 1.97,0 2.98,0c0.91,0 1.82,0 2.76,0c2.11,0.13 2.11,0.13 3.11,1.13c0.13,1.69 0.18,3.38 0.21,5.07c0.02,1.08 0.04,2.17 0.06,3.28c0.02,1.18 0.03,2.35 0.05,3.56c0.02,1.2 0.04,2.4 0.06,3.63c0.07,3.84 0.13,7.68 0.19,11.53c0.04,2.59 0.08,5.19 0.13,7.79c0.11,6.38 0.21,12.76 0.3,19.14c0.66,0 1.33,0 2,0c1.61,-1.62 1.61,-1.62 3.26,-3.68c2.21,-2.63 4.36,-4.95 7.06,-7.07c3.15,-2.62 3.15,-2.62 4.68,-6.25c0.01,-2.63 0.01,-2.63 -1,-5c-1.96,-1.36 -1.96,-1.36 -4,-2c0.5,-1.48 0.5,-1.48 1,-3c3.61,-0.08 7.21,-0.14 10.82,-0.18c1.02,-0.03 2.05,-0.05 3.1,-0.08c1.48,-0.02 1.48,-0.02 2.98,-0.03c0.91,-0.02 1.81,-0.03 2.74,-0.05c2.79,0.4 3.64,1.18 5.36,3.34c-0.76,0.32 -0.76,0.32 -1.54,0.64c-5.71,2.72 -9.71,6.34 -13.96,10.93c-0.52,0.56 -1.05,1.13 -1.6,1.71c-2.56,2.85 -4.17,4.97 -4.9,8.72c0.66,0 1.33,0 2,0c0.59,1.11 0.59,1.11 1.18,2.23c2.64,4.95 5.22,9.45 8.82,13.77c2.43,3.82 4.46,7.74 6,12c0.66,0 1.33,0 2,0c0.42,0.48 0.83,0.95 1.26,1.44c2.45,2.19 4.52,2.29 7.74,2.56c1,-0.33 1.99,-0.66 3,-1c0.03,-6.94 0.05,-13.88 0.06,-20.82c0,-2.37 0.01,-4.73 0.02,-7.09c0.01,-3.39 0.02,-6.78 0.02,-10.17c0.01,-1.06 0.01,-2.13 0.02,-3.22c0,-1.47 0,-1.47 0,-2.97c0,-0.87 0,-1.73 0.01,-2.63c0.01,-2.16 0.01,-2.16 -1.13,-4.1c-2.01,-1.13 -2.01,-1.13 -4,-2c0.5,-1.48 0.5,-1.48 1,-3c3.65,-0.03 7.3,-0.04 10.94,-0.06c1.04,-0.01 2.08,-0.02 3.16,-0.03c0.99,0 1.98,0 2.99,0c1.38,-0.01 1.38,-0.01 2.78,-0.02c2.13,0.11 2.13,0.11 3.13,1.11c0.12,1.58 0.16,3.16 0.18,4.73c0.01,1.01 0.03,2.02 0.04,3.06c0.02,1.65 0.02,1.65 0.03,3.33c0.03,2.3 0.07,4.6 0.1,6.9c0.05,3.65 0.09,7.3 0.13,10.95c0.04,3.5 0.09,7.01 0.15,10.52c0,1.09 0.01,2.18 0.02,3.31c0.02,1.02 0.03,2.03 0.05,3.08c0.02,1.34 0.02,1.34 0.03,2.71c0.3,2.6 0.9,4.21 2.27,6.41c1.33,1.02 2.66,2.02 4,3c0,0.66 0,1.32 0,2c-20.12,0 -40.25,0 -61,0c0.34,-2.64 0.66,-5.28 1,-8c-1.23,-3.32 -1.23,-3.32 -3.24,-6.25c-0.63,-0.99 -1.25,-1.99 -1.9,-3.01c-1.15,-1.69 -2.34,-3.36 -3.59,-4.97c-1.27,-1.77 -1.27,-1.77 -1.27,-3.77c-3.11,0.65 -3.11,0.65 -4,3c-0.15,2.85 -0.23,5.66 -0.24,8.5c-0.03,0.79 -0.05,1.57 -0.07,2.38c-0.05,2.54 -0.05,2.54 0.31,6.12c1.49,0.99 1.49,0.99 3,2c0,0.66 0,1.32 0,2c0.66,0 1.33,0 2,0c0,0.66 0,1.32 0,2c-9.89,0 -19.79,0 -30,0c0.66,-1.32 1.33,-2.64 2,-4c1,0 1.99,0 3,0c0.05,-9.97 0.09,-19.94 0.11,-29.91c0.01,-4.63 0.02,-9.26 0.05,-13.89c0.02,-4.46 0.03,-8.93 0.03,-13.4c0.01,-1.7 0.02,-3.41 0.03,-5.11c0.01,-2.39 0.01,-4.78 0.01,-7.16c0.01,-0.71 0.02,-1.42 0.02,-2.14c-0.02,-4.77 -0.62,-7.64 -3.87,-11.14c-0.45,-0.41 -0.91,-0.82 -1.38,-1.25c1.66,-1.65 3.61,-1.13 5.88,-1.13zm39.12,41.13c1,2 1,2 1,2l-1,-2z" fill="#ffffff" id="svg_6"/>
  <path d="m994,171.33c4.15,-0.03 8.29,-0.05 12.44,-0.06c1.18,-0.01 2.37,-0.02 3.59,-0.03c1.12,0 2.24,0 3.4,-0.01c1.05,0 2.09,-0.01 3.16,-0.01c2.41,0.11 2.41,0.11 3.41,1.11c0.09,2.44 0.12,4.86 0.11,7.3c0,1.59 0,3.17 0,4.76c0,0.84 0,1.68 0,2.55c-0.01,4.46 0.02,8.91 0.04,13.36c0.02,5.68 0.04,11.36 0.03,17.03c-0.02,4.58 0,9.16 0.04,13.74c0.01,1.74 0,3.49 -0.01,5.24c-0.02,2.44 0,4.88 0.03,7.33c-0.02,1.08 -0.02,1.08 -0.04,2.19c-0.01,2.29 -0.01,2.29 0.8,5.5c2.95,2.32 2.95,2.32 6,4c0,0.99 0,1.98 0,3c-2.67,0.51 -5.33,1.01 -8,1.5c-0.74,0.14 -1.49,0.29 -2.25,0.43c-5,0.92 -9.67,1.38 -14.75,1.07c-2,-2 -2,-2 -3,-4c-0.49,0.65 -0.98,1.29 -1.48,1.96c-3.43,2.78 -6.53,2.77 -10.77,2.73c-1.14,-0.01 -1.14,-0.01 -2.31,-0.02c-4.59,-0.18 -7.65,-0.71 -11.25,-3.79c-1.75,-1.96 -1.75,-1.96 -3.19,-3.88c-0.76,-0.93 -1.53,-1.86 -2.31,-2.81c-5.55,-10.48 -6.54,-21.84 -3.14,-33.22c2.7,-8.35 6.36,-14.53 14.07,-19.06c7.65,-2.94 14.13,-1.02 21.38,2.09c0,-8.58 0,-17.16 0,-26c-1.98,0 -3.96,0 -6,0c0,-1.32 0,-2.64 0,-4zm-7,33c-4.74,7.67 -4.58,15.95 -4.44,24.69c0,1.28 -0.01,2.56 -0.02,3.87c0.06,8.34 0.82,13.48 5.46,20.44c2.55,1.2 2.55,1.2 5,2c3.44,-1.83 5.78,-3.78 8,-7c0.96,-5.07 0.94,-9.95 0.77,-15.1c-0.08,-2.39 -0.1,-4.79 -0.12,-7.19c-0.02,-1.54 -0.05,-3.08 -0.08,-4.62c-0.01,-0.7 -0.02,-1.41 -0.02,-2.14c-0.24,-6.17 -1.55,-11 -6.05,-15.39c-3.72,-2.32 -4.86,-1.99 -8.5,0.44zm14,-2c1,3 1,3 1,3l-1,-3z" fill="#ffffff" id="svg_8"/>
  <path d="m458,171.33c6.97,-0.08 13.95,-0.13 20.92,-0.16c2.37,-0.02 4.74,-0.04 7.11,-0.07c3.42,-0.03 6.84,-0.05 10.25,-0.06c1.05,-0.02 2.11,-0.03 3.19,-0.05c8.06,0 14.71,1.08 20.84,6.78c0.64,0.57 1.27,1.15 1.93,1.74c6.16,6.36 6.13,11.8 6.03,20.47c-0.35,4.31 -1.25,6.26 -4.27,9.35c-0.57,0.59 -1.14,1.19 -1.73,1.8c-8.54,8.25 -17.44,8.58 -28.77,8.99c-3.32,-0.19 -3.32,-0.19 -4.5,1.21c-0.1,2.09 -0.13,4.18 -0.13,6.27c0,1.28 -0.01,2.56 -0.01,3.88c0.01,0.68 0.01,1.35 0.01,2.04c0,2.04 0,4.07 -0.01,6.11c0,1.29 0.01,2.58 0.01,3.9c0,1.19 0,2.37 0,3.59c0.12,2.86 0.47,5.43 1.13,8.21c0.63,0.13 1.25,0.27 1.9,0.4c1.22,0.27 1.22,0.27 2.48,0.54c0.81,0.17 1.62,0.35 2.46,0.52c2.16,0.54 2.16,0.54 4.16,1.54c0,0.66 0,1.32 0,2c-14.19,0 -28.38,0 -43,0c0.33,-0.99 0.66,-1.98 1,-3c2.64,-0.99 5.28,-1.98 8,-3c0,-25.41 0,-50.82 0,-77c-3.16,-1.26 -5.76,-2.28 -9,-3c0,-0.99 0,-1.98 0,-3zm32,4c-2.55,2.55 -2.25,4.19 -2.28,7.66c0.01,0.77 0.01,1.55 0.01,2.34c0,0.79 0,1.58 0,2.4c0,1.67 0,3.35 0.01,5.02c0.01,2.57 0,5.14 -0.01,7.7c0,1.63 0,3.26 0,4.88c0,0.77 0,1.54 -0.01,2.34c-0.12,4.29 -0.12,4.29 2.28,7.66c5.34,-0.21 9.97,-1.43 14,-5c3.95,-5.79 3.76,-13.29 3,-20c-1.64,-7.31 -1.64,-7.31 -6.38,-12.76c-3.72,-1.76 -6.51,-2.04 -10.62,-2.24z" fill="#ffffff" id="svg_9"/>
  <path d="m722.63,198.15c1.23,0.01 1.23,0.01 2.49,0.02c6.17,0.08 12.34,0.3 18.51,0.6c0.82,0.04 1.65,0.08 2.49,0.12c5.76,0.32 5.76,0.32 6.89,1.45c0.04,2 0.04,4 0,6c-2.98,0 -5.95,0 -9,0c0.65,1.24 1.32,2.47 2,3.75c2.5,5.74 3.09,11.07 2,17.25c-2.41,5.38 -6,9.83 -11,13c-3.41,1.1 -6.76,1.2 -10.32,1.37c-5.24,0.4 -9.26,0.71 -13.68,3.63c-1.06,3.08 -1.06,3.08 -1,6c3.32,0.99 6.4,1.15 9.86,1.21c1.14,0.03 2.27,0.06 3.44,0.08c2.37,0.06 4.75,0.1 7.12,0.14c10.68,0.29 10.68,0.29 15.58,3.57c0,0.66 0,1.32 0,2c0.99,0.33 1.98,0.66 3,1c2.42,3.64 2.29,5.54 2.31,9.87c0.01,1.22 0.03,2.43 0.05,3.68c-0.5,4.76 -2.17,7.28 -5.55,10.57c-7.58,5.06 -14.44,5.32 -23.31,5.19c-1.09,0 -2.18,0.01 -3.31,0.01c-7.04,-0.05 -15.2,-0.1 -21.19,-4.32c-2.14,-2.75 -2.95,-4.61 -3.44,-8.07c0.54,-3.63 1.56,-4.72 4.44,-6.93c1.48,-0.5 1.48,-0.5 3,-1c-0.46,-0.62 -0.92,-1.24 -1.39,-1.87c-5.29,-7.79 -5.29,-7.79 -4.43,-12.82c1.58,-4.98 4.93,-8 8.82,-11.31c0.65,-0.66 1.32,-1.32 2,-2c-0.73,-0.72 -1.45,-1.45 -2.19,-2.19c-1.39,-1.39 -1.39,-1.39 -2.81,-2.81c-0.89,-0.85 -1.78,-1.69 -2.69,-2.57c-4.57,-4.81 -4.82,-8.9 -4.69,-15.39c0.87,-7.03 5.31,-11.41 10.53,-15.82c5,-3.32 9.61,-3.51 15.47,-3.41zm-6.62,6.19c-0.78,5.9 -1.14,11.79 -1.26,17.75c-0.02,1.23 -0.05,2.46 -0.07,3.73c0.36,3.85 1.33,6.23 3.33,9.52c2.38,1.83 3.56,2.01 6.56,1.93c3.25,-1.25 3.94,-2.86 5.44,-5.93c0.33,-0.66 0.65,-1.32 1,-2c0.08,-1.38 0.1,-2.76 0.09,-4.14c0,-1.2 0,-1.2 -0.01,-2.44c-0.01,-0.84 -0.01,-1.68 -0.02,-2.55c-0.01,-0.85 -0.01,-1.7 -0.02,-2.57c-0.01,-2.1 -0.03,-4.2 -0.04,-6.3c-0.66,0 -1.33,0 -2,0c-0.19,-1.39 -0.19,-1.39 -0.38,-2.81c-0.44,-3.33 -0.44,-3.33 -2.62,-6.19c-3.62,0 -6.56,0.96 -10,2zm-7,69c-0.87,1.96 -0.87,1.96 -1,4c3.41,4.48 6.51,6.02 12,7c7.52,0.64 15.56,0.45 21.76,-4.38c1.64,-1.78 1.64,-1.78 0.92,-5.31c-0.34,-1.64 -0.34,-1.64 -0.68,-3.31c-9.84,-4.29 -25.11,-6.68 -33,2z" fill="#ffffff" id="svg_10"/>
  <path d="m573.91,199.43c2.29,1.47 4.16,2.99 6.09,4.9c0.88,0.83 0.88,0.83 1.77,1.68c3.83,4.04 5.59,8.03 7.23,13.32c0.28,0.89 0.28,0.89 0.57,1.79c1.92,9.73 1.18,20.81 -3.88,29.4c-3.77,5.61 -7.03,9.07 -13.69,10.81c-7.96,0.95 -17.48,1.84 -24.43,-2.69c-1.98,-1.67 -1.98,-1.67 -3.57,-3.31c-0.76,-0.78 -1.52,-1.57 -2.31,-2.37c-6.34,-9.86 -7.8,-19.01 -6.69,-30.63c2.45,-9.95 8.27,-17.5 16.71,-23.14c6.4,-2.4 15.81,-2.17 22.2,0.24zm-12.91,2.9c-5.92,6.2 -6.22,11.24 -6.6,19.37c-0.29,5.53 -0.29,5.53 -1.4,6.63c-0.09,1.65 -0.13,3.29 -0.12,4.94c0,0.9 -0.01,1.79 -0.01,2.71c-0.02,2.37 -0.02,2.37 1.13,4.35c0.13,1.58 0.23,3.17 0.32,4.75c0.45,4.72 1.33,7.72 4.68,11.25c2.99,1.15 2.99,1.15 6,1c3.28,-2.18 3.71,-3.26 4.64,-6.97c0.65,-3.59 0.72,-7.16 0.78,-10.81c0.02,-0.81 0.04,-1.62 0.06,-2.45c0.06,-2.57 0.1,-5.14 0.15,-7.71c0.04,-1.75 0.08,-3.5 0.12,-5.25c0.09,-4.27 0.18,-8.54 0.25,-12.81c-0.66,0 -1.32,0 -2,0c-0.1,-0.93 -0.2,-1.85 -0.31,-2.81c-0.69,-3.23 -0.98,-4.39 -3.69,-6.19c-1.32,0 -2.64,0 -4,0zm-5,1c0.33,0.99 0.66,1.98 1,3c0.33,-0.99 0.66,-1.98 1,-3c-0.66,0 -1.32,0 -2,0z" fill="#ffffff" id="svg_13"/>
  <path d="m832.78,199.15c7.43,3.64 12.47,10.52 15.22,18.18c3.03,9.77 3.4,20.64 -0.97,30.09c-3.38,5.94 -8.43,11.71 -15.03,13.91c-8.53,0.85 -18.94,1.83 -26.21,-3.33c-7.53,-7.03 -11.22,-14.02 -12.1,-24.29c-0.35,-10.7 1.64,-19.19 8.51,-27.55c8.4,-8.54 19.23,-10.36 30.58,-7.01zm-10.78,3.18c-1.42,1.11 -1.42,1.11 -2.88,2.25c-0.53,0.42 -1.06,0.83 -1.61,1.27c-3.93,3.86 -3.92,8.28 -4.14,13.54c-0.03,0.76 -0.07,1.52 -0.11,2.31c-0.27,5.88 -0.46,11.74 -0.26,17.63c0.03,0.96 0.06,1.92 0.08,2.9c0.33,5.83 0.83,9.78 4.92,14.1c2.38,1.24 2.38,1.24 5,1c3.35,-1.32 4.67,-2.25 6.13,-5.57c1.06,-4.2 1.12,-8.01 1.06,-12.33c0,-1.25 0,-1.25 0,-2.53c-0.02,-2.65 -0.04,-5.3 -0.07,-7.95c-0.01,-1.8 -0.02,-3.6 -0.02,-5.41c-0.03,-4.4 -0.06,-8.81 -0.1,-13.21c-0.66,0 -1.32,0 -2,0c-0.06,-0.95 -0.12,-1.9 -0.19,-2.88c-0.4,-1.54 -0.4,-1.54 -0.81,-3.12c-2.46,-1.45 -2.46,-1.45 -5,-2zm18,49c-0.66,1.32 -1.32,2.64 -2,4c1.32,-1.32 2.64,-2.64 4,-4c-0.66,0 -1.32,0 -2,0z" fill="#ffffff" id="svg_14"/>
  <path d="m236,438.33c0.99,2.97 0.99,2.97 2,6c-0.99,-0.5 -0.99,-0.5 -2,-1c-1.48,-0.09 -2.97,-0.12 -4.45,-0.11c-1.38,0 -1.38,0 -2.79,0c-1,0 -1.99,0.01 -3.02,0.01c-1.53,0 -1.53,0 -3.08,0.01c-3.26,0 -6.52,0.01 -9.78,0.03c-2.21,0 -4.42,0.01 -6.63,0.01c-5.41,0.01 -10.83,0.03 -16.25,0.05c0,0.99 0,1.98 0,3c15.18,0.33 30.36,0.66 46,1c0.5,1.98 0.5,1.98 1,4c-15.51,0 -31.02,0 -47,0c0,0.99 0,1.98 0,3c15.18,0.33 30.36,0.66 46,1c0.5,2.48 0.5,2.48 1,5c-15.51,0 -31.02,0 -47,0c0,0.99 0,1.98 0,3c15.18,0.33 30.36,0.66 46,1c0.5,2.48 0.5,2.48 1,5c-10.8,0.02 -21.61,0.04 -32.41,0.05c-5.02,0.01 -10.04,0.01 -15.05,0.03c-4.84,0.01 -9.68,0.01 -14.51,0.01c-1.85,0.01 -3.7,0.01 -5.55,0.02c-2.58,0 -5.17,0 -7.75,0c-0.77,0.01 -1.54,0.01 -2.34,0.01c-5.28,-0.01 -5.28,-0.01 -6.39,-1.12c-0.39,-4.09 -0.47,-8.21 -0.62,-12.31c-0.06,-1.16 -0.11,-2.31 -0.16,-3.5c-0.05,-1.11 -0.09,-2.22 -0.13,-3.37c-0.04,-1.02 -0.09,-2.04 -0.13,-3.09c0.04,-2.45 0.32,-4.4 1.04,-6.73c27.67,-0.92 55.31,-1.12 83,-1z" fill="#3C4C8D" id="svg_15"/>
  <path d="m636.37,199.2c1.3,0 2.59,0 3.93,0c0.68,0 1.36,0 2.05,0c2.07,0.01 4.14,0 6.21,0c1.3,0 2.6,0 3.93,0c1.8,0 1.8,0 3.64,0c2.87,0.13 2.87,0.13 4.87,1.13c-1,3 -1,3 -4,5c0.43,5.08 1.71,8.86 3.89,13.45c1.72,3.94 2.92,8.04 4.18,12.15c0.68,2.56 0.68,2.56 2.93,3.4c0.66,-0.33 1.32,-0.66 2,-1c0.54,-1.78 0.54,-1.78 0.87,-3.93c0.71,-3.6 1.75,-6.67 3.25,-10c2.17,-5.1 2.3,-9.6 1.88,-15.07c-1.32,-0.66 -2.64,-1.32 -4,-2c0.33,-0.99 0.66,-1.98 1,-3c2.62,-0.02 5.25,-0.04 7.87,-0.06c0.75,-0.01 1.5,-0.02 2.27,-0.03c5.63,-0.02 5.63,-0.02 7.86,1.09c-1.32,2.94 -2.75,4.75 -5,7c-2.79,3.83 -3.86,7.75 -5.13,12.24c-0.88,2.79 -1.95,5.39 -3.12,8.08c-2.84,6.6 -5.05,13.38 -7.25,20.21c-1.61,4.96 -3.4,9.71 -5.5,14.47c-0.82,2.14 -1.64,4.29 -2.44,6.44c-6.17,16.04 -6.17,16.04 -11.56,19.56c-5.1,0.81 -10.29,1.12 -15.15,-0.88c-2.91,-2.14 -3.88,-4.22 -4.98,-7.62c0.13,-3.5 0.13,-3.5 1.5,-6.37c3.64,-2.95 6.99,-3.57 11.63,-3.13c3.14,2.53 3.88,6.21 5,10c0.66,0 1.32,0 2,0c5.63,-10.56 5.63,-10.56 6,-22c-1.75,-4.79 -3.82,-9.39 -6,-14c-3.29,-6.96 -6.38,-13.88 -9,-21.12c-3.07,-8.44 -6.33,-16.64 -13,-22.88c1.85,-1.85 4.89,-1.13 7.37,-1.13z" fill="#ffffff" id="svg_16"/>
  <path d="m758,171.33c3.81,-0.03 7.62,-0.05 11.44,-0.06c1.09,-0.01 2.17,-0.02 3.3,-0.03c1.03,0 2.07,0 3.13,-0.01c0.96,0 1.92,-0.01 2.91,-0.01c2.22,0.11 2.22,0.11 3.22,1.11c0.12,2.44 0.18,4.86 0.19,7.3c0.01,0.77 0.02,1.53 0.02,2.32c0.02,1.66 0.04,3.33 0.05,4.99c0.02,2.64 0.05,5.27 0.08,7.91c0.06,5.6 0.11,11.19 0.16,16.79c0.06,6.48 0.12,12.95 0.19,19.43c0.03,2.59 0.05,5.19 0.07,7.79c0.02,1.59 0.03,3.19 0.05,4.78c0.01,1.08 0.01,1.08 0.01,2.19c0.1,7.68 0.38,8.7 6.18,14.5c-10.23,0 -20.46,0 -31,0c0,-0.99 0,-1.98 0,-3c1.98,-0.99 1.98,-0.99 4,-2c0,-26.4 0,-52.8 0,-80c-2.48,-0.99 -2.48,-0.99 -5,-2c0.33,-0.66 0.66,-1.32 1,-2z" fill="#ffffff" id="svg_17"/>
  <path d="m151,370.33c10.53,-0.02 21.05,-0.04 31.58,-0.05c4.89,-0.01 9.77,-0.01 14.66,-0.03c4.72,-0.01 9.43,-0.01 14.14,-0.01c1.8,-0.01 3.61,-0.01 5.41,-0.02c2.51,0 5.03,0 7.55,0c0.75,-0.01 1.5,-0.01 2.27,-0.01c5.16,0.01 5.16,0.01 7.39,1.12c0,6.6 0,13.2 0,20c-10.8,0.02 -21.61,0.04 -32.41,0.05c-5.02,0.01 -10.04,0.01 -15.05,0.03c-4.84,0.01 -9.68,0.01 -14.51,0.01c-1.85,0.01 -3.7,0.01 -5.55,0.02c-2.58,0 -5.17,0 -7.75,0c-0.77,0.01 -1.54,0.01 -2.34,0.01c-5.28,-0.01 -5.28,-0.01 -6.39,-1.12c-0.02,-1.49 0.04,-2.98 0.12,-4.47c0.05,-0.9 0.1,-1.8 0.15,-2.73c0.05,-0.94 0.11,-1.89 0.17,-2.86c0.05,-0.95 0.1,-1.9 0.16,-2.88c0.13,-2.35 0.26,-4.71 0.4,-7.06z" fill="#D4251E" id="svg_18"/>
  <path d="m602.88,171.2c0.98,0 1.97,0 2.98,0c1.04,0 2.08,0 3.14,0.01c1.56,-0.01 1.56,-0.01 3.15,-0.01c0.98,0 1.97,0 2.98,0c0.91,0 1.82,0 2.76,0c2.11,0.13 2.11,0.13 3.11,1.13c0.12,2.45 0.17,4.86 0.18,7.3c0.01,0.77 0.01,1.53 0.02,2.32c0.01,1.67 0.02,3.33 0.03,5c0.02,2.63 0.04,5.27 0.07,7.9c0.07,7.5 0.13,14.99 0.18,22.48c0.03,4.58 0.07,9.16 0.12,13.74c0.02,1.75 0.03,3.49 0.04,5.24c0.01,2.44 0.04,4.89 0.06,7.33c0,0.73 0,1.45 0,2.19c0.11,7.5 1.85,9.04 7.3,14.5c-10.23,0 -20.46,0 -31,0c0,-0.99 0,-1.98 0,-3c1.99,-0.99 1.99,-0.99 4,-2c0.12,-10.08 0.21,-20.16 0.26,-30.25c0.03,-4.68 0.07,-9.36 0.12,-14.04c0.06,-4.52 0.09,-9.04 0.1,-13.56c0.01,-1.73 0.03,-3.45 0.05,-5.17c0.04,-2.42 0.04,-4.83 0.04,-7.25c0.02,-0.71 0.04,-1.42 0.06,-2.16c-0.04,-3.99 -0.53,-5.45 -3.16,-8.55c-0.81,-0.67 -1.63,-1.33 -2.47,-2.02c1.66,-1.65 3.61,-1.13 5.88,-1.13z" fill="#ffffff" id="svg_20"/>
  <path d="m156.39,392.21c0.77,0 1.55,0.01 2.34,0.01c1.22,0 1.22,0 2.45,0c2.69,0 5.38,0.01 8.07,0.02c1.86,0 3.72,0 5.58,0c4.9,0 9.81,0.01 14.71,0.03c5,0.01 10,0.01 15,0.02c9.82,0.01 19.64,0.02 29.46,0.04c0.03,2.61 0.05,5.21 0.06,7.82c0.01,0.73 0.02,1.47 0.03,2.23c0.01,3.25 -0.06,5.85 -1.09,8.95c-3.54,1.5 -7.5,1.14 -11.28,1.15c-1.09,0 -1.09,0 -2.2,0.01c-2.39,0.01 -4.78,0.01 -7.18,0.01c-1.66,0.01 -3.33,0.01 -5,0.01c-3.49,0.01 -6.98,0.01 -10.47,0.01c-4.47,0 -8.94,0.01 -13.41,0.03c-3.44,0.01 -6.88,0.01 -10.32,0.01c-1.65,0 -3.3,0.01 -4.95,0.02c-2.31,0.01 -4.61,0 -6.92,0c-1.31,0 -2.62,0 -3.97,0c-3.06,-0.23 -4.75,-0.62 -7.3,-2.25c-0.03,-2.81 -0.05,-5.62 -0.06,-8.43c-0.01,-0.81 -0.02,-1.61 -0.03,-2.43c-0.01,-2.05 0.04,-4.09 0.09,-6.14c1.75,-1.75 4.05,-1.12 6.39,-1.12z" fill="#F0E72E" id="svg_21"/>
  <path d="m323,351.33c9.24,0 18.48,0 28,0c0,19.14 0,38.28 0,58c-8.74,2.18 -17.99,1 -27,1c-0.33,-19.47 -0.66,-38.94 -1,-59z" fill="#D4251E" id="svg_22"/>
  <path d="m1052,198.08c1.18,0.02 2.35,0.03 3.56,0.05c3.22,0.19 6.27,0.65 9.44,1.2c1.32,0 2.64,0 4,0c0.06,0.71 0.12,1.42 0.18,2.15c0.09,0.92 0.17,1.84 0.26,2.79c0.08,0.91 0.16,1.83 0.24,2.77c0.08,2.25 0.08,2.25 1.32,3.29c0.07,1.52 0.08,3.04 0.06,4.56c-0.01,0.83 -0.02,1.66 -0.02,2.51c-0.02,0.63 -0.03,1.27 -0.04,1.93c-0.99,0 -1.98,0 -3,0c-3,-4.22 -3,-4.22 -3,-7c-0.66,0 -1.32,0 -2,0c-0.21,-0.74 -0.41,-1.49 -0.62,-2.25c-1.85,-3.7 -3.68,-4.94 -7.38,-6.75c-3.78,0.13 -3.78,0.13 -7,1c-0.46,3.86 -0.24,5.62 1.88,8.94c2.35,2.57 4.98,4.39 7.87,6.31c6.87,4.63 13.69,10.65 16.25,18.75c1.11,6.31 -0.54,11.1 -3.32,16.74c-2.54,3.42 -5.33,5.87 -9.66,6.59c-2.19,0.1 -4.33,0.07 -6.52,-0.02c-0.73,-0.01 -1.47,-0.02 -2.22,-0.03c-3.32,-0.07 -6.35,-0.29 -9.62,-0.92c-2.88,-0.69 -2.88,-0.69 -5.66,1.64c-0.99,-0.66 -1.98,-1.32 -3,-2c-0.34,-1.97 -0.34,-1.97 -0.29,-4.35c0.01,-0.85 0.02,-1.7 0.03,-2.58c0.02,-0.89 0.05,-1.78 0.07,-2.7c0.02,-0.89 0.03,-1.79 0.04,-2.71c0.04,-2.22 0.09,-4.44 0.15,-6.66c3.82,0.75 3.82,0.75 5.45,2.96c0.41,0.8 0.82,1.59 1.24,2.41c0.41,0.8 0.83,1.59 1.26,2.4c1.05,2.23 1.05,2.23 2.05,5.23c3.97,1.45 7.77,2.6 12,2c2.32,-2.87 2.32,-2.87 1.94,-6.37c-1.1,-4.27 -2.59,-5.85 -5.94,-8.63c-0.66,-0.33 -1.32,-0.66 -2,-1c0,-0.66 0,-1.32 0,-2c-0.72,-0.23 -1.44,-0.47 -2.18,-0.71c-6.07,-2.78 -12.02,-8.91 -15.01,-14.92c-1.86,-7.74 0.47,-12.55 4.33,-19.17c4.13,-4.88 8.71,-5.58 14.86,-5.45zm17,16.25c1,2 1,2 1,2l-1,-2zm0,36c0.33,0.99 0.66,1.98 1,3c0.33,-0.99 0.66,-1.98 1,-3c-0.66,0 -1.32,0 -2,0z" fill="#ffffff" id="svg_23"/>
  <path d="m265,454.33c0.33,0.66 0.66,1.32 1,2c28.05,0 56.1,0 85,0c0,5.94 0,11.88 0,18c-28.38,0 -56.76,0 -86,0c0,-6.6 0,-13.2 0,-20z" fill="#3C4C8D" id="svg_24"/>
  <path d="m264,435.33c28.38,0 56.76,0 86,0c0,6.92 0,13.85 0,20.98c-11.07,0.02 -22.13,0.05 -33.2,0.06c-5.13,0.01 -10.27,0.01 -15.41,0.03c-4.95,0.01 -9.91,0.01 -14.86,0.01c-1.89,0.01 -3.79,0.01 -5.68,0.02c-2.65,0 -5.29,0 -7.93,0c-0.79,0.01 -1.59,0.01 -2.4,0.01c-5.41,-0.01 -5.41,-0.01 -6.52,-1.31c0,-6.54 0,-13.08 0,-19.81l0,0.01z" fill="#F0E623" id="svg_25"/>
  <path d="m238,440.33c0.33,0 0.66,0 1,0c0,12.54 0,25.08 0,38c-0.99,-1.98 -0.99,-1.98 -2,-4c-27.72,0 -55.44,0 -84,0c0,-1.98 0,-3.96 0,-6c10.79,0.11 21.57,0.22 32.36,0.34c5.01,0.05 10.02,0.11 15.03,0.16c4.83,0.04 9.66,0.1 14.49,0.15c1.85,0.02 3.69,0.04 5.54,0.06c2.58,0.02 5.15,0.05 7.73,0.08c0.77,0.01 1.54,0.02 2.33,0.02c5.29,0.08 5.29,0.08 7.52,1.19c-0.33,-1.65 -0.66,-3.3 -1,-5c-15.51,-0.33 -31.02,-0.66 -47,-1c-0.5,-0.99 -0.5,-0.99 -1,-2c0.33,-0.66 0.66,-1.32 1,-2c6.51,-0.03 13.03,-0.04 19.54,-0.05c2.22,-0.01 4.44,-0.02 6.66,-0.03c3.18,-0.01 6.36,-0.01 9.54,-0.02c1,0 1.99,-0.01 3.02,-0.01c0.92,0 1.84,0 2.79,0c0.81,-0.01 1.63,-0.01 2.46,-0.01c1.99,0.12 1.99,0.12 3.99,1.12c-0.33,-1.65 -0.66,-3.3 -1,-5c-15.51,-0.33 -31.02,-0.66 -47,-1c-0.5,-0.99 -0.5,-0.99 -1,-2c0.33,-0.66 0.66,-1.32 1,-2c6.51,-0.03 13.03,-0.04 19.54,-0.05c2.22,-0.01 4.44,-0.02 6.66,-0.03c3.18,-0.01 6.36,-0.01 9.54,-0.02c1,0 1.99,-0.01 3.02,-0.01c0.92,0 1.84,0 2.79,0c0.81,-0.01 1.63,-0.01 2.46,-0.01c1.99,0.12 1.99,0.12 3.99,1.12c-0.5,-1.98 -0.5,-1.98 -1,-4c-15.51,-0.33 -31.02,-0.66 -47,-1c-0.5,-0.99 -0.5,-0.99 -1,-2c0.33,-0.66 0.66,-1.32 1,-2c5.06,-1.26 10.15,-1.13 15.34,-1.1c0.88,0 1.75,0.01 2.66,0.01c2.79,0 5.58,0.01 8.38,0.03c1.89,0 3.79,0.01 5.69,0.01c4.65,0.01 9.29,0.03 13.93,0.05c0,0.66 0,1.32 0,2c0.66,0 1.32,0 2,0c0,-1.32 0,-2.64 0,-4z" fill="#FDFDFD" id="svg_26"/>
  <path d="m153,486.33c28.38,0 56.76,0 86,0c0,2.97 0,5.94 0,9c-28.38,0 -56.76,0 -86,0c-1,-3 -1,-3 0,-9z" fill="#FDFDFD" id="svg_27"/>
  <path d="m308,220.33c8.31,4.72 8.31,4.72 9.55,8.79c1,4.87 1.77,9.94 -0.82,14.38c-4.7,5.54 -4.7,5.54 -8.65,6.1c-5.12,0.23 -8.67,-0.28 -12.7,-3.59c-3.46,-4.22 -3.47,-9.27 -3.13,-14.49c1.17,-4.98 1.67,-6.44 6,-9.44c3.41,-1.78 5.87,-2.41 9.75,-1.75z" fill="#ffffff" id="svg_28"/>
  <path d="m200,221.33c3.9,2.12 5.57,4.66 6.91,8.86c0.96,4.61 1.39,8.08 0.09,12.64c-2.8,3.5 -5.43,6 -9.96,6.88c-5.1,0.3 -8.07,-1.05 -12.04,-4.38c-3.31,-3.31 -3.85,-6.37 -4,-11c0.79,-4.93 2.23,-8.87 6.12,-12.12c4.31,-2.62 8.2,-2.51 12.88,-0.88z" fill="#ffffff" id="svg_29"/>
  <path d="m159.33,473.21c1.14,0.01 1.14,0.01 2.31,0.01c1.2,0 1.2,0 2.43,0c2.65,0 5.31,0.01 7.97,0.02c1.83,0 3.67,0 5.51,0c4.84,0 9.69,0.01 14.53,0.03c4.94,0.01 9.88,0.01 14.82,0.02c9.7,0.01 19.4,0.02 29.1,0.04c0.5,2.48 0.5,2.48 1,5c-28.05,0 -56.1,0 -85,0c1.41,-5.61 1.85,-5.11 7.33,-5.12z" fill="#D4251E" id="svg_30"/>
  <path d="m157.22,490.24c1.46,0.01 2.93,0.02 4.39,0.04c0.8,0.01 1.59,0.02 2.41,0.02c2.65,0.02 5.3,0.06 7.95,0.09c1.83,0.02 3.66,0.03 5.49,0.05c3.85,0.04 7.69,0.09 11.54,0.14c4.94,0.06 9.88,0.11 14.81,0.15c3.79,0.03 7.57,0.08 11.36,0.12c1.82,0.03 3.64,0.04 5.46,0.06c2.55,0.02 5.09,0.05 7.63,0.09c1.14,0.01 1.14,0.01 2.3,0.01c5.21,0.1 5.21,0.1 7.44,2.33c-0.33,0.66 -0.66,1.32 -1,2c-27.72,0 -55.44,0 -84,0c0,-4.97 0,-4.97 4.22,-5.1z" fill="#D4251E" id="svg_31"/>
  <path d="m154,482.33c27.06,0 54.12,0 82,0c0.5,1.98 0.5,1.98 1,4c-28.05,0 -56.1,0 -85,0c0.66,-1.32 1.32,-2.64 2,-4z" fill="#D4251E" id="svg_32"/>
  <path d="m681,325.33c2.42,-0.05 4.83,-0.09 7.25,-0.12c0.68,-0.02 1.36,-0.04 2.07,-0.06c3.74,-0.03 6.5,0.1 9.68,2.18c0,-0.66 0,-1.32 0,-2c2.38,0.25 2.38,0.25 5,1c2.21,3.25 2.37,6.4 2.62,10.25c0.08,1.08 0.15,2.16 0.23,3.27c0.08,1.23 0.08,1.23 0.15,2.48c-2.31,0 -4.62,0 -7,0c-1.2,-2.41 -1.1,-3.95 -1.06,-6.62c0.01,-0.82 0.02,-1.64 0.02,-2.48c0.02,-0.63 0.03,-1.25 0.04,-1.9c-0.66,0 -1.32,0 -2,0c0.33,3.3 0.66,6.6 1,10c-5.55,2.48 -10.17,1.85 -16,1c-1.3,-3.89 -1.02,-7.34 -0.94,-11.41c0.06,-2.71 0.06,-2.71 -1.06,-5.59zm9,4c-1.84,3.1 -2.55,5.39 -2,9c1.9,1.84 1.9,1.84 4,3c1.59,-1.59 1.21,-3.25 1.25,-5.44c0.03,-0.8 0.05,-1.6 0.08,-2.43c-0.11,-0.7 -0.22,-1.41 -0.33,-2.13c-0.99,-0.66 -1.98,-1.32 -3,-2z" fill="#ffffff" id="svg_33"/>
  <path d="m945,169.33c0.66,0.33 1.32,0.66 2,1c0,0.66 0,1.32 0,2c0.64,0.16 1.28,0.33 1.94,0.5c2.06,1.5 2.06,1.5 2.94,5.38c0.24,3.26 0.25,5.48 -1.88,8.12c-2.98,2.29 -6.26,2.49 -9.96,2.38c-3.9,-0.72 -5.47,-2.36 -8.04,-5.38c-0.64,-3.98 -0.39,-6.17 1.31,-9.81c3.46,-4.48 6.31,-4.48 11.69,-4.19z" fill="#ffffff" id="svg_34"/>
  <path d="m1019,318.33c5.75,-0.12 5.75,-0.12 8,1c0.62,3.06 0.62,3.06 1,6c1.39,0.09 1.39,0.09 2.81,0.19c3.19,0.81 3.19,0.81 5.07,3c1.31,3.29 1.63,5.29 1.12,8.81c-2,2.88 -2,2.88 -4,5c-0.99,-0.33 -1.98,-0.66 -3,-1c-0.33,-3.96 -0.66,-7.92 -1,-12c-0.33,0 -0.66,0 -1,0c0.01,0.85 0.02,1.71 0.04,2.59c0,1.1 0.01,2.21 0.02,3.35c0.01,1.1 0.03,2.2 0.04,3.34c-0.1,2.72 -0.1,2.72 -1.1,3.72c-3,0.12 -3,0.12 -6,0c-1.68,-1.68 -1.23,-3.82 -1.32,-6.13c-0.04,-1.03 -0.08,-2.07 -0.12,-3.13c-0.04,-1.09 -0.08,-2.18 -0.12,-3.3c-0.05,-1.09 -0.09,-2.19 -0.13,-3.31c-0.11,-2.71 -0.21,-5.42 -0.31,-8.13z" fill="#ffffff" id="svg_35"/>
  <path d="m762,325.33c2.69,1.31 2.69,1.31 4,4c0.58,3.78 0.69,7.23 0,11c-2.7,2.55 -5.39,3.33 -9,4c-0.17,2.42 -0.17,2.42 0,5c0.66,0.66 1.32,1.32 2,2c-3.38,0.12 -3.38,0.12 -7,0c-2,-2 -2,-2 -2.21,-3.91c0.02,-0.76 0.03,-1.52 0.05,-2.3c0.02,-1.25 0.02,-1.25 0.03,-2.52c0.02,-0.88 0.05,-1.75 0.07,-2.65c0.03,-1.71 0.06,-3.43 0.09,-5.14c0.02,-1.15 0.02,-1.15 0.05,-2.31c-0.08,-2.19 -0.47,-4.07 -1.08,-6.17c3.95,-1.98 8.69,-1.42 13,-1zm-4,2c-2.47,3.7 -2.45,6.71 -2,11c0.86,2.41 0.86,2.41 2,4c0.66,0 1.32,0 2,0c0.2,-1.75 0.38,-3.5 0.56,-5.25c0.11,-0.97 0.21,-1.95 0.32,-2.95c0.11,-2.56 -0.1,-4.38 -0.88,-6.8c-0.66,0 -1.32,0 -2,0zm5,12c1,2 1,2 1,2l-1,-2z" fill="#ffffff" id="svg_36"/>
  <path d="m983.94,325.15c0.88,-0.01 1.75,-0.03 2.65,-0.04c2.41,0.23 2.41,0.23 5.41,2.23c-0.99,0 -1.98,0 -3,0c0.21,1.07 0.42,2.14 0.63,3.25c0.36,3.62 0.36,4.83 -1.63,7.75c-1.98,0 -3.96,0 -6,0c0,0.66 0,1.32 0,2c0.57,0.13 1.13,0.26 1.72,0.4c0.73,0.18 1.46,0.35 2.22,0.53c1.1,0.27 1.1,0.27 2.21,0.53c1.85,0.54 1.85,0.54 2.85,1.54c0.19,2.93 0.19,2.93 0,6c-2.45,2.45 -4.5,2.73 -7.89,3.11c-3.56,-0.19 -5.41,-1.89 -8.11,-4.11c0.16,-0.59 0.31,-1.19 0.48,-1.8c1.44,-5.87 1.44,-9.45 -0.48,-15.2c0.82,-2.63 0.82,-2.63 2,-5c2.47,-1.23 4.19,-1.17 6.94,-1.19zm-1.94,4.19c-1.26,1.05 -1.26,1.05 -1.25,3.43c0.08,0.85 0.17,1.7 0.25,2.57c1.49,0.99 1.49,0.99 3,2c1.43,-2.86 0.6,-4.94 0,-8c-0.66,0 -1.32,0 -2,0zm-3,8c1,2 1,2 1,2l-1,-2zm3,8c-0.66,0.66 -1.32,1.32 -2,2c0,0.99 0,1.98 0,3c2.64,0 5.28,0 8,0c-0.66,-1.65 -1.32,-3.3 -2,-5c-1.32,0 -2.64,0 -4,0z" fill="#ffffff" id="svg_37"/>
  <path d="m589,318.33c2.31,0.33 4.62,0.66 7,1c0.03,0.55 0.05,1.11 0.08,1.68c0.11,2.52 0.23,5.05 0.36,7.57c0.04,0.87 0.08,1.75 0.12,2.64c0.04,0.85 0.08,1.69 0.12,2.56c0.04,0.78 0.08,1.55 0.11,2.35c0.21,2.16 0.63,4.12 1.21,6.2c-1.77,0.2 -3.54,0.38 -5.31,0.56c-0.99,0.11 -1.97,0.21 -2.99,0.32c-2.97,0.13 -4.83,-0.31 -7.32,-1.94c-2.17,-3.05 -2.48,-6.3 -2.38,-9.94c1,-2.94 1,-2.94 3,-5c3.69,-0.81 3.69,-0.81 7,-1c0.33,-1.32 0.66,-2.64 1,-4c-0.66,0 -1.32,0 -2,0c0,-0.99 0,-1.98 0,-3zm-2,10c-0.19,1.28 -0.37,2.56 -0.56,3.88c-0.11,0.71 -0.21,1.43 -0.32,2.17c-0.29,2.03 -0.29,2.03 0.88,3.95c0.66,0 1.32,0 2,0c0.33,1.32 0.66,2.64 1,4c0,-4.29 0,-8.58 0,-13c-0.99,-0.33 -1.98,-0.66 -3,-1z" fill="#ffffff" id="svg_38"/>
  <path d="m454,318.33c2.79,-0.05 5.58,-0.09 8.38,-0.12c0.79,-0.02 1.58,-0.04 2.4,-0.06c2.07,-0.01 4.15,0.08 6.22,0.18c2,2 2,2 2.12,4.62c-0.04,0.79 -0.08,1.57 -0.12,2.38c-0.72,-0.64 -1.44,-1.28 -2.19,-1.94c-2.79,-2.05 -4.43,-2.67 -7.81,-3.06c0.18,4.34 0.18,4.34 2,8c0.99,-0.99 1.98,-1.98 3,-3c0.38,1.66 0.71,3.32 1,5c-0.33,0.33 -0.66,0.66 -1,1c0.29,2.01 0.62,4.01 1,6c-0.66,0 -1.32,0 -2,0c-1.62,-2.5 -1.62,-2.5 -3,-5c0.01,0.64 0.02,1.28 0.04,1.93c0,0.83 0.01,1.66 0.02,2.51c0.01,0.82 0.03,1.64 0.04,2.49c-0.1,2.07 -0.1,2.07 -1.1,3.07c-3,0.12 -3,0.12 -6,0c-1.57,-1.57 -1.2,-3.19 -1.28,-5.37c-0.06,-1.33 -0.06,-1.33 -0.11,-2.68c-0.04,-0.93 -0.07,-1.86 -0.11,-2.83c-0.07,-1.83 -0.14,-3.66 -0.22,-5.49c-0.03,-0.81 -0.06,-1.63 -0.09,-2.47c-0.12,-2.34 -0.12,-2.34 -1.19,-5.16z" fill="#ffffff" id="svg_39"/>
  <path d="m190,464.33c15.18,0 30.36,0 46,0c0.5,2.48 0.5,2.48 1,5c-15.51,0 -31.02,0 -47,0c0,-1.65 0,-3.3 0,-5z" fill="#D4251E" id="svg_40"/>
  <path d="m190,455.33c15.18,0 30.36,0 46,0c0.5,2.48 0.5,2.48 1,5c-15.51,0 -31.02,0 -47,0c0,-1.65 0,-3.3 0,-5z" fill="#D4251E" id="svg_41"/>
  <path d="m644,318.33c2,-0.04 4,-0.04 6,0c1.68,1.68 1.23,3.82 1.32,6.13c0.06,1.55 0.06,1.55 0.12,3.13c0.04,1.09 0.08,2.18 0.12,3.3c0.05,1.09 0.09,2.19 0.13,3.31c0.11,2.71 0.21,5.42 0.31,8.13c-1.44,0.19 -2.88,0.37 -4.32,0.55c-0.8,0.1 -1.6,0.21 -2.42,0.31c-2.9,0.18 -4.76,-0.42 -7.26,-1.86c-2,-2 -2,-2 -2.2,-4.6c0.03,-1 0.05,-2 0.08,-3.02c0.01,-1.01 0.03,-2.01 0.05,-3.04c0.02,-0.77 0.05,-1.55 0.07,-2.34c3.33,-1.78 6.24,-2.49 10,-3c-0.33,-0.6 -0.66,-1.2 -1,-1.81c-1,-2.19 -1,-2.19 -1,-5.19zm-2,10c-1.58,3.17 -1.29,6.54 -1,10c0.86,2.41 0.86,2.41 2,4c0.66,-0.33 1.32,-0.66 2,-1c0.85,-4.66 1.3,-8.38 0,-13c-0.99,0 -1.98,0 -3,0z" fill="#ffffff" id="svg_42"/>
  <path d="m919.68,325.2c1.12,0.01 1.12,0.01 2.26,0.01c1.11,0 1.11,0 2.25,-0.01c5.56,0.01 5.56,0.01 7.81,1.14c0.31,2.71 0.52,5.34 0.63,8.06c0.04,0.76 0.07,1.52 0.11,2.3c0.1,1.88 0.18,3.76 0.26,5.64c-2.27,0.13 -4.54,0.23 -6.81,0.31c-1.9,0.09 -1.9,0.09 -3.83,0.17c-3.36,-0.48 -3.36,-0.48 -5.3,-2.67c-1.11,-2.95 -1.37,-4.99 -1.25,-8.13c0.03,-0.88 0.06,-1.76 0.09,-2.67c0.03,-0.67 0.07,-1.33 0.1,-2.01c-0.99,-0.33 -1.98,-0.66 -3,-1c1.81,-1.82 4.27,-1.14 6.68,-1.14zm4.32,1.14c-1.17,2.34 -1.16,3.83 -1.19,6.43c-0.01,0.79 -0.02,1.57 -0.04,2.38c0.09,2.48 0.09,2.48 2.23,5.19c1.66,-1.66 1.17,-3.61 1.19,-5.88c0.01,-0.88 0.03,-1.77 0.04,-2.68c-0.06,-2.7 -0.06,-2.7 -2.23,-5.44zm-7,3c0,2.64 0,5.28 0,8c0.33,0 0.66,0 1,0c0,-2.64 0,-5.28 0,-8c-0.33,0 -0.66,0 -1,0z" fill="#ffffff" id="svg_43"/>
  <path d="m827,325.33c2.29,-0.05 4.58,-0.09 6.88,-0.12c1.91,-0.04 1.91,-0.04 3.86,-0.08c3.26,0.2 3.26,0.2 5.26,2.2c0.14,2.58 0.19,5.05 0.12,7.62c0,0.71 -0.01,1.42 -0.02,2.15c-0.03,1.74 -0.06,3.49 -0.1,5.23c-4.29,0 -8.58,0 -13,0c-0.66,-1.65 -1.32,-3.3 -2,-5c-0.33,0 -0.66,0 -1,0c0,-3.96 0,-7.92 0,-12zm7,2c0,3.96 0,7.92 0,12c0.66,0 1.32,0 2,0c1.11,-2.21 1.2,-3.55 1.25,-6c0.03,-0.7 0.05,-1.4 0.08,-2.12c-0.11,-0.62 -0.22,-1.24 -0.33,-1.88c-0.99,-0.66 -1.98,-1.32 -3,-2z" fill="#ffffff" id="svg_44"/>
  <path d="m477,325.33c2.12,-0.05 4.25,-0.09 6.38,-0.12c1.18,-0.03 2.36,-0.05 3.58,-0.08c3.04,0.2 3.04,0.2 5.04,2.2c0.3,2.37 0.5,4.74 0.62,7.12c0.08,1.29 0.15,2.57 0.23,3.89c0.08,1.48 0.08,1.48 0.15,2.99c0.66,0 1.32,0 2,0c-0.33,0.66 -0.66,1.32 -1,2c-5.15,0.09 -9.92,-0.15 -15,-1c-1.16,-3.47 -1.33,-6.54 -1.56,-10.19c-0.09,-1.27 -0.17,-2.54 -0.26,-3.85c-0.06,-0.98 -0.12,-1.95 -0.18,-2.96zm8,5c-0.33,2.97 -0.66,5.94 -1,9c0.99,0.33 1.98,0.66 3,1c0.33,-2.97 0.66,-5.94 1,-9c-0.99,-0.33 -1.98,-0.66 -3,-1z" fill="#ffffff" id="svg_45"/>
  <path d="m532.38,325.08c0.98,-0.03 1.95,-0.05 2.96,-0.08c2.66,0.33 2.66,0.33 4.5,1.4c1.81,3 1.45,5.66 1.35,9.12c-0.02,1.27 -0.05,2.54 -0.08,3.85c-0.03,0.98 -0.07,1.95 -0.11,2.96c-1.98,0 -3.95,0 -6,0c-1.31,-2.62 -0.89,-4.23 -0.56,-7.13c0.1,-0.91 0.21,-1.82 0.31,-2.75c0.08,-0.7 0.17,-1.4 0.25,-2.12c-0.99,0.5 -0.99,0.5 -2,1c0.02,0.71 0.03,1.42 0.04,2.15c0.01,1.38 0.01,1.38 0.03,2.79c0.01,0.91 0.02,1.83 0.03,2.77c-0.1,2.29 -0.1,2.29 -1.1,3.29c-1.99,0.04 -4,0.04 -6,0c-0.02,-2.65 -0.04,-5.29 -0.06,-7.94c-0.01,-0.75 -0.01,-1.51 -0.02,-2.28c-0.01,-1.93 0.03,-3.86 0.08,-5.78c1.74,-1.73 4.03,-1.21 6.38,-1.25z" fill="#ffffff" id="svg_46"/>
  <path d="m846,325.33c2.12,-0.08 4.25,-0.14 6.38,-0.19c1.18,-0.03 2.36,-0.07 3.58,-0.1c1.51,0.14 1.51,0.14 3.04,0.29c2.18,3.26 2.32,4.68 2.56,8.5c0.21,3.12 0.45,5.52 1.44,8.5c-2.88,0.19 -2.88,0.19 -6,0c-2.3,-3.44 -2.54,-5.94 -3,-10c-0.33,2.64 -0.66,5.28 -1,8c0.66,0.33 1.32,0.66 2,1c-1,1 -1,1 -4,1.12c-3,-0.12 -3,-0.12 -4,-1.12c-0.24,-2.69 -0.42,-5.36 -0.56,-8.06c-0.05,-0.76 -0.09,-1.52 -0.13,-2.3c-0.11,-1.88 -0.21,-3.76 -0.31,-5.64zm8,4c0.99,1.49 0.99,1.49 2,3c0,-0.99 0,-1.98 0,-3c-0.66,0 -1.32,0 -2,0z" fill="#ffffff" id="svg_47"/>
  <path d="m561,325.33c2.08,-0.08 4.17,-0.14 6.25,-0.19c1.74,-0.05 1.74,-0.05 3.52,-0.1c3.23,0.29 3.23,0.29 5.64,1.35c2.42,2.95 1.98,5.38 1.84,9.13c-0.04,1.27 -0.07,2.54 -0.11,3.85c-0.07,1.47 -0.07,1.47 -0.14,2.96c-1.98,0 -3.96,0 -6,0c-1.31,-2.62 -0.9,-4.23 -0.56,-7.12c0.1,-0.92 0.2,-1.83 0.31,-2.76c0.08,-0.7 0.16,-1.4 0.25,-2.12c-0.99,0.5 -0.99,0.5 -2,1c0.01,0.71 0.02,1.42 0.04,2.15c0.01,1.38 0.01,1.38 0.02,2.79c0.01,0.91 0.03,1.83 0.04,2.77c-0.1,2.29 -0.1,2.29 -1.1,3.29c-2,0.04 -4,0.04 -6,0c-1.62,-3.25 -1.01,-6.7 -0.94,-10.27c-0.05,-2.44 -0.36,-4.41 -1.06,-6.73z" fill="#ffffff" id="svg_48"/>
  <path d="m885,325.33c2,-0.04 4,-0.04 6,0c1.81,1.81 1.38,4.61 1.56,7.06c0.09,1.11 0.17,2.21 0.26,3.35c0.06,0.85 0.12,1.71 0.18,2.59c0.66,0 1.32,0 2,0c-0.33,-3.96 -0.66,-7.92 -1,-12c1.65,-0.33 3.3,-0.66 5,-1c2.66,2.66 2.35,4.24 2.56,7.94c0.2,3.3 0.39,5.91 1.44,9.06c-2.29,0.08 -4.58,0.14 -6.88,0.19c-1.91,0.05 -1.91,0.05 -3.86,0.1c-1.08,-0.09 -2.15,-0.19 -3.26,-0.29c-2.18,-3.26 -2.32,-4.68 -2.56,-8.5c-0.21,-3.12 -0.45,-5.52 -1.44,-8.5z" fill="#ffffff" id="svg_49"/>
  <path d="m195.47,438.22c1.35,0 1.35,0 2.73,0c0.97,0.01 1.94,0.01 2.94,0.02c1.49,0 1.49,0 3.01,0c3.18,0.01 6.36,0.02 9.54,0.03c2.15,0.01 4.3,0.01 6.46,0.01c5.28,0.02 10.57,0.03 15.85,0.05c0.66,1.98 1.32,3.96 2,6c-0.66,-0.33 -1.32,-0.66 -2,-1c-1.47,-0.08 -2.95,-0.09 -4.42,-0.08c-1.37,0.01 -1.37,0.01 -2.77,0.02c-1.48,0.02 -1.48,0.02 -3,0.04c-2.08,0.01 -4.16,0.02 -6.24,0.03c-3.29,0.03 -6.59,0.06 -9.88,0.09c-3.17,0.03 -6.33,0.05 -9.5,0.06c-0.99,0.02 -1.98,0.03 -3,0.04c-0.92,0.01 -1.83,0.01 -2.77,0.01c-0.81,0.01 -1.62,0.02 -2.45,0.03c-1.97,-0.24 -1.97,-0.24 -3.97,-2.24c0,-0.66 0,-1.32 0,-2c2.83,-0.94 4.54,-1.12 7.47,-1.11z" fill="#D4251E" id="svg_50"/>
  <path d="m779,325.33c2.44,1.31 2.44,1.31 4,4c0.32,3.69 0.23,7.31 0,11c0.66,0.33 1.32,0.66 2,1c-1,1 -1,1 -4.16,1.1c-1.29,-0.01 -2.58,-0.03 -3.9,-0.04c-1.29,-0.01 -2.58,-0.02 -3.91,-0.02c-1,-0.02 -2,-0.03 -3.03,-0.04c-0.59,-2.36 -0.59,-2.36 -1,-5c1.44,-2.31 1.44,-2.31 3,-4c-0.52,-0.6 -1.03,-1.2 -1.56,-1.81c-0.48,-0.72 -0.95,-1.45 -1.44,-2.19c0.33,-0.99 0.66,-1.98 1,-3c3.09,-1.55 5.59,-1.29 9,-1zm-4,2c-0.33,0.99 -0.66,1.98 -1,3c0.66,0.66 1.32,1.32 2,2c0.33,-1.32 0.66,-2.64 1,-4c-0.66,-0.33 -1.32,-0.66 -2,-1zm0,10c0.66,0.66 1.32,1.32 2,2c0,-0.66 0,-1.32 0,-2c-0.66,0 -1.32,0 -2,0z" fill="#ffffff" id="svg_51"/>
  <path d="m190,447.33c15.18,0 30.36,0 46,0c0.5,1.98 0.5,1.98 1,4c-15.51,0 -31.02,0 -47,0c0,-1.32 0,-2.64 0,-4z" fill="#D4251E" id="svg_52"/>
  <path d="m812,325.33c2.83,2.19 3.88,3.45 4.64,6.98c0.06,1.06 0.12,2.12 0.17,3.21c0.07,1.06 0.14,2.13 0.21,3.23c-0.02,2.58 -0.02,2.58 -1.02,3.58c-2.19,0.07 -4.38,0.08 -6.56,0.06c-1.8,-0.01 -1.8,-0.01 -3.63,-0.02c-0.93,-0.02 -1.86,-0.03 -2.81,-0.04c-0.33,-2.31 -0.66,-4.62 -1,-7c3,-2 3,-2 5,-3c-2.48,-0.99 -2.48,-0.99 -5,-2c0.33,-1.32 0.66,-2.64 1,-4c3.09,-0.92 5.78,-1.4 9,-1zm-5,2c0.33,1.65 0.66,3.3 1,5c0.33,-1.32 0.66,-2.64 1,-4c-0.66,-0.33 -1.32,-0.66 -2,-1zm1,10c-0.33,0.99 -0.66,1.98 -1,3c0.66,0 1.32,0 2,0c-0.33,-0.99 -0.66,-1.98 -1,-3z" fill="#ffffff" id="svg_53"/>
  <path d="m671.56,324.77c3.28,0.76 4.4,1.89 6.44,4.56c1.44,2.88 1.44,2.88 2,6c-1.97,4.97 -1.97,4.97 -4,7c-6.97,0.7 -6.97,0.7 -11.06,-2.06c-1.94,-2.94 -1.94,-2.94 -2.07,-6.44c1.53,-4.76 3.61,-7.94 8.69,-9.06zm-0.56,3.56c-1.26,2.53 -1.1,4.31 -1.06,7.13c0,0.91 0.01,1.82 0.02,2.76c0.01,0.69 0.03,1.39 0.04,2.11c0.99,-0.66 1.98,-1.32 3,-2c0.36,-2.43 0.36,-2.43 0.18,-5.12c-0.02,-0.91 -0.05,-1.82 -0.08,-2.76c-0.05,-1.05 -0.05,-1.05 -0.1,-2.12c-0.66,0 -1.32,0 -2,0zm-3,1c1,2 1,2 1,2l-1,-2z" fill="#ffffff" id="svg_54"/>
  <path d="m611,325.33c3.88,6.62 3.88,6.62 5,10c-2.36,5.36 -2.36,5.36 -4,7c-4.49,0.37 -7,0.49 -11.06,-1.5c-1.94,-2.5 -1.94,-2.5 -2.06,-6.44c1.35,-6.76 5.24,-9.86 12.12,-9.06zm-4,3c-1.2,2.41 -1.1,3.95 -1.06,6.62c0.01,0.82 0.02,1.64 0.02,2.48c0.02,0.63 0.03,1.25 0.04,1.9c0.99,0 1.98,0 3,0c0,-3.3 0,-6.6 0,-10c-0.66,-0.33 -1.32,-0.66 -2,-1z" fill="#ffffff" id="svg_55"/>
  <path d="m1043,325.33c7.88,0.88 7.88,0.88 9,2c0.21,1.95 0.37,3.91 0.5,5.88c0.22,3.31 0.45,5.96 1.5,9.12c-2.1,0.08 -4.21,0.14 -6.31,0.19c-1.17,0.03 -2.35,0.07 -3.55,0.1c-3.14,-0.29 -3.14,-0.29 -5.06,-1.8c-0.36,-0.49 -0.71,-0.98 -1.08,-1.49c0.75,-2.44 0.75,-2.44 2,-5c2.12,-0.81 2.12,-0.81 4,-1c-1.65,-1.65 -3.3,-3.3 -5,-5c0.99,-0.33 1.98,-0.66 3,-1c0.33,-0.66 0.66,-1.32 1,-2zm3,4c1,2 1,2 1,2l-1,-2zm0,6c0,3 0,3 0,3l0,-3z" fill="#ffffff" id="svg_56"/>
  <path d="m1013,325.33c3.19,2.21 3.91,3.66 4.88,7.44c0.12,3.56 -0.23,5.45 -1.88,8.56c-1,1 -1,1 -4.75,1.31c-3.07,-0.06 -4.44,-0.4 -7.31,-1.75c-2.17,-2.86 -2.25,-3.6 -2.06,-7.06c0.58,-3.36 1.04,-4.41 3.37,-7.06c3.02,-1.58 4.42,-2.12 7.75,-1.44zm-4,3c-1.2,2.41 -1.1,3.95 -1.06,6.62c0.01,0.82 0.02,1.64 0.02,2.48c0.02,0.63 0.03,1.25 0.04,1.9c1.98,0.99 1.98,0.99 4,2c-0.11,-1.98 -0.24,-3.96 -0.38,-5.94c-0.06,-1.1 -0.13,-2.2 -0.21,-3.34c-0.13,-0.9 -0.27,-1.79 -0.41,-2.72c-0.66,-0.33 -1.32,-0.66 -2,-1z" fill="#ffffff" id="svg_57"/>
  <path d="m549,325.33c6.75,0.75 6.75,0.75 9,3c0.3,2.37 0.5,4.74 0.62,7.12c0.08,1.29 0.15,2.57 0.23,3.89c0.08,1.48 0.08,1.48 0.15,2.99c-2.12,0.05 -4.25,0.09 -6.38,0.12c-1.18,0.03 -2.36,0.05 -3.58,0.08c-3.04,-0.2 -3.04,-0.2 -5.04,-2.2c0.32,-3.29 1.51,-4.91 4,-7c0.66,-0.33 1.32,-0.66 2,-1c-0.62,-0.1 -1.24,-0.21 -1.88,-0.31c-2.12,-0.69 -2.12,-0.69 -4.12,-3.69c1.65,-0.33 3.3,-0.66 5,-1c0,-0.66 0,-1.32 0,-2zm1,2c0.66,1.32 1.32,2.64 2,4c-0.33,-1.32 -0.66,-2.64 -1,-4c-0.33,0 -0.66,0 -1,0zm6,1c1,2 1,2 1,2l-1,-2zm-6,7c0.66,1.32 1.32,2.64 2,4c0.33,-1.32 0.66,-2.64 1,-4c-0.99,0 -1.98,0 -3,0zm6,0c1,2 1,2 1,2l-1,-2z" fill="#ffffff" id="svg_58"/>
  <path d="m722,326.33c1.78,1.78 1.34,4.46 1.5,6.88c0.22,3.31 0.45,5.96 1.5,9.12c-2.1,0.11 -4.21,0.19 -6.31,0.25c-1.76,0.07 -1.76,0.07 -3.55,0.14c-3.14,-0.39 -3.14,-0.39 -5.06,-2.41c-0.36,-0.65 -0.71,-1.31 -1.08,-1.98c0.75,-1.94 0.75,-1.94 2,-4c2.12,-0.75 2.12,-0.75 4,-1c-1.65,-1.65 -3.3,-3.3 -5,-5c4.27,-3.23 6.85,-3.19 12,-2zm-7,1c0.66,1.32 1.32,2.64 2,4c0.33,-0.99 0.66,-1.98 1,-3c-0.99,-0.33 -1.98,-0.66 -3,-1zm2,8c1,4 1,4 1,4l-1,-4z" fill="#ffffff" id="svg_59"/>
  <path d="m961,325.33c2.46,2.33 3.72,4.28 4.94,7.44c0.08,3.49 -1.19,5.59 -2.94,8.56c-1,1 -1,1 -4.81,1.44c-3.61,-0.06 -4,-0.25 -6.75,-2.94c-1.9,-4.63 -1.71,-6.67 -0.44,-11.5c2.85,-3.38 5.73,-3.71 10,-3zm-4,3c-1.18,2.37 -1.13,3.87 -1.12,6.5c-0.01,0.79 -0.01,1.59 -0.01,2.41c0,2.15 0,2.15 1.13,4.09c0.66,-0.33 1.32,-0.66 2,-1c0,-3.63 0,-7.26 0,-11c-0.66,-0.33 -1.32,-0.66 -2,-1zm-3,9c1,2 1,2 1,2l-1,-2z" fill="#ffffff" id="svg_60"/>
  <path d="m992,318.33c5.75,-0.12 5.75,-0.12 8,1c0.33,7.59 0.66,15.18 1,23c-2.31,0 -4.62,0 -7,0c-1.68,-1.68 -1.23,-3.82 -1.32,-6.13c-0.04,-1.03 -0.08,-2.07 -0.12,-3.13c-0.04,-1.09 -0.08,-2.18 -0.12,-3.3c-0.05,-1.09 -0.09,-2.19 -0.13,-3.31c-0.11,-2.71 -0.21,-5.42 -0.31,-8.13z" fill="#ffffff" id="svg_61"/>
  <path d="m1056,318.33c5.75,-0.12 5.75,-0.12 8,1c0,7.59 0,15.18 0,23c-1.98,0 -3.96,0 -6,0c-1.68,-1.68 -1.23,-3.82 -1.32,-6.13c-0.04,-1.03 -0.08,-2.07 -0.12,-3.13c-0.04,-1.09 -0.08,-2.18 -0.12,-3.3c-0.05,-1.09 -0.09,-2.19 -0.13,-3.31c-0.11,-2.71 -0.21,-5.42 -0.31,-8.13z" fill="#ffffff" id="svg_62"/>
  <path d="m886,319.33c0,0.99 0,1.98 0,3c-0.99,0 -1.98,0 -3,0c-1.38,6.37 -2.08,13.76 0,20c-2.64,0 -5.28,0 -8,0c-1.73,-3.45 -1.01,-7.36 -0.94,-11.15c0.08,-2.93 0.08,-2.93 -1.06,-5.85c0.66,0 1.32,0 2,0c0.08,-0.78 0.16,-1.57 0.25,-2.38c0.75,-2.62 0.75,-2.62 2.44,-4c3.02,-0.81 5.29,-0.31 8.31,0.38z" fill="#ffffff" id="svg_63"/>
  <path d="m521,326.33c2.35,2.88 3,4.27 3,8c-2.64,0 -5.28,0 -8,0c0,0.99 0,1.98 0,3c2.95,1.16 2.95,1.16 6,1c0.66,0.33 1.32,0.66 2,1c-0.99,1.49 -0.99,1.49 -2,3c-2.06,0.4 -2.06,0.4 -4.44,0.38c-0.78,0 -1.56,0.01 -2.37,0.02c-2.72,-0.5 -3.6,-1.15 -5.19,-3.4c-0.36,-2.12 -0.36,-2.12 -0.31,-4.44c0,-0.76 0.01,-1.52 0.01,-2.31c0.33,-2.48 0.98,-4.12 2.3,-6.25c3.22,-1.61 5.59,-0.84 9,0zm-5,2c-0.33,0.99 -0.66,1.98 -1,3c0.99,0.33 1.98,0.66 3,1c-0.33,-1.32 -0.66,-2.64 -1,-4c-0.33,0 -0.66,0 -1,0z" fill="#ffffff" id="svg_64"/>
  <path fill="#000204" id="svg_65"/>
  <path d="m935,325.33c1.94,-0.05 3.87,-0.09 5.81,-0.12c1.08,-0.03 2.16,-0.05 3.27,-0.08c2.92,0.2 2.92,0.2 5.92,2.2c0.19,2.62 0.19,2.62 0,5c-1.98,-0.66 -3.96,-1.32 -6,-2c-0.2,1.44 -0.38,2.87 -0.56,4.31c-0.16,1.2 -0.16,1.2 -0.32,2.43c-0.27,2.43 -0.27,2.43 0.88,5.26c-2.33,0.04 -4.67,0.04 -7,0c-2.06,-2.06 -1.41,-6.22 -1.56,-9.06c-0.05,-0.76 -0.09,-1.52 -0.13,-2.3c-0.11,-1.88 -0.21,-3.76 -0.31,-5.64zm5,4c0,1.32 0,2.64 0,4c0.66,-0.33 1.32,-0.66 2,-1c-0.66,-0.99 -1.32,-1.98 -2,-3z" fill="#ffffff" id="svg_66"/>
  <path d="m785,325.33c2.12,-0.03 4.25,-0.05 6.38,-0.06c1.18,-0.01 2.36,-0.03 3.58,-0.04c3.04,0.1 3.04,0.1 5.04,1.1c-0.33,1.65 -0.66,3.3 -1,5c-1.65,0 -3.3,0 -5,0c-0.19,1.26 -0.37,2.52 -0.56,3.81c-0.11,0.71 -0.21,1.42 -0.32,2.15c-0.26,2.24 -0.26,2.24 0.88,5.04c-2.31,0 -4.62,0 -7,0c-1.62,-3.25 -1.01,-6.7 -0.94,-10.27c-0.05,-2.44 -0.36,-4.41 -1.06,-6.73z" fill="#ffffff" id="svg_67"/>
  <path d="m398,139.33c0.33,0 0.66,0 1,0c0,46.2 0,92.4 0,140c-0.33,0 -0.66,0 -1,0c0,-46.2 0,-92.4 0,-140z" fill="#FDFDFD" id="svg_68"/>
  <path d="m910,320.33c0.66,0.33 1.32,0.66 2,1c1.2,5.65 1.1,11.25 1,17c0.66,0.33 1.32,0.66 2,1c-0.33,0.99 -0.66,1.98 -1,3c-2.81,0.25 -2.81,0.25 -6,0c-3.79,-3.81 -3.87,-8 -4.21,-13.14c0.21,-2.86 0.21,-2.86 2.59,-6.05c0.86,-0.6 1.73,-1.19 2.62,-1.81c0.33,-0.33 0.66,-0.66 1,-1z" fill="#ffffff" id="svg_69"/>
  <path d="m153,439.33c11.55,0 23.1,0 35,0c0.5,0.99 0.5,0.99 1,2c-11.22,0.33 -22.44,0.66 -34,1c0,8.91 0,17.82 0,27c-0.66,-0.33 -1.32,-0.66 -2,-1c-0.2,-4.08 -0.38,-8.17 -0.56,-12.25c-0.06,-1.16 -0.11,-2.32 -0.17,-3.51c-0.05,-1.12 -0.1,-2.23 -0.15,-3.38c-0.05,-1.03 -0.09,-2.05 -0.14,-3.11c0.02,-2.75 0.02,-2.75 1.02,-6.75z" fill="#1F2848" id="svg_70"/>
  <path d="m625,325.33c2.64,0.33 5.28,0.66 8,1c0,5.28 0,10.56 0,16c-1.98,0 -3.96,0 -6,0c-2.06,-2.06 -1.41,-6.22 -1.56,-9.06c-0.05,-0.76 -0.09,-1.52 -0.13,-2.3c-0.11,-1.88 -0.21,-3.76 -0.31,-5.64z" fill="#ffffff" id="svg_71"/>
  <path d="m738,326.33c0.33,1.98 0.66,3.96 1,6c-0.66,0 -1.32,0 -2,0c-0.33,-0.99 -0.66,-1.98 -1,-3c-0.99,-0.33 -1.98,-0.66 -3,-1c1.72,3.03 1.72,3.03 4.12,4.31c1.88,1.69 1.88,1.69 2.19,4.75c-0.31,2.94 -0.31,2.94 -1.31,4.94c-0.99,0 -1.98,0 -3,0c-3,-4.22 -3,-4.22 -3,-7c-0.99,0.33 -1.98,0.66 -3,1c-1.89,-1.89 -1.24,-4.57 -1.33,-7.09c0.16,-0.95 0.16,-0.95 0.33,-1.91c3.85,-2.57 5.59,-1.83 10,-1z" fill="#ffffff" id="svg_72"/>
  <path d="m500,325.33c3.69,0.88 3.69,0.88 7,2c0.33,1.65 0.66,3.3 1,5c-0.66,0 -1.32,0 -2,0c-0.33,-0.99 -0.66,-1.98 -1,-3c-0.99,-0.33 -1.98,-0.66 -3,-1c1.05,3.14 1.58,3.73 4.06,5.69c0.97,0.76 1.94,1.52 2.94,2.31c-0.66,1.98 -1.32,3.96 -2,6c-1.81,-0.19 -1.81,-0.19 -4,-1c-1.56,-2.38 -1.56,-2.38 -3,-5c-0.56,-0.47 -1.11,-0.95 -1.69,-1.44c-1.31,-1.56 -1.31,-1.56 -1.69,-4.62c0.13,-0.97 0.25,-1.94 0.38,-2.94c0.99,-0.66 1.98,-1.32 3,-2z" fill="#ffffff" id="svg_73"/>
  <path d="m655,326.33c1.65,0 3.3,0 5,0c2,2 1.41,5.82 1.56,8.56c0.05,0.71 0.09,1.42 0.13,2.16c0.11,1.76 0.21,3.52 0.31,5.28c-2.31,0 -4.62,0 -7,0c0,-5.28 0,-10.56 0,-16z" fill="#ffffff" id="svg_74"/>
  <path d="m859,325.33c2.18,3.26 2.32,4.68 2.56,8.5c0.21,3.12 0.45,5.52 1.44,8.5c-2.88,0.19 -2.88,0.19 -6,0c-2.45,-3.68 -2.23,-5.65 -2,-10c0.33,-0.99 0.66,-1.98 1,-3c-0.99,-0.33 -1.98,-0.66 -3,-1c2.62,-3 2.62,-3 6,-3z" fill="#ffffff" id="svg_75"/>
  <path d="m450,319.33c0.33,0.66 0.66,1.32 1,2c-0.66,0 -1.32,0 -2,0c0.33,0.58 0.66,1.15 1,1.75c1,2.25 1,2.25 1,6.25c-4.29,0 -8.58,0 -13,0c-0.33,-1.65 -0.66,-3.3 -1,-5c1.94,-2.31 1.94,-2.31 4,-4c0.66,0.33 1.32,0.66 2,1c-0.99,1.49 -0.99,1.49 -2,3c0.99,0 1.98,0 3,0c0.25,-0.64 0.5,-1.28 0.75,-1.94c1.25,-2.06 1.25,-2.06 3.37,-2.81c0.62,-0.08 1.24,-0.17 1.88,-0.25z" fill="#ffffff" id="svg_76"/>
  <path d="m622,172.33c0.33,0 0.66,0 1,0c0,26.07 0,52.14 0,79c-0.33,0 -0.66,0 -1,0c0,-26.07 0,-52.14 0,-79z" fill="#FDFDFD" id="svg_77"/>
  <path d="m638,326.33c0.99,0.33 1.98,0.66 3,1c0.06,0.75 0.12,1.5 0.18,2.27c0.09,0.98 0.17,1.97 0.26,2.98c0.08,0.97 0.16,1.95 0.24,2.95c0.27,2.36 0.67,4.52 1.32,6.8c-4.75,-0.75 -4.75,-0.75 -7,-3c-0.27,-2.53 -0.27,-2.53 -0.25,-5.5c-0.01,-0.98 -0.01,-1.96 -0.02,-2.97c0.27,-2.53 0.27,-2.53 2.27,-4.53z" fill="#ffffff" id="svg_78"/>
  <path d="m666,329.33c0.66,0.99 1.32,1.98 2,3c0.66,-0.99 1.32,-1.98 2,-3c0.06,0.77 0.12,1.54 0.18,2.34c0.09,1 0.17,2 0.26,3.04c0.08,0.99 0.16,1.99 0.24,3.02c0.17,2.58 0.17,2.58 1.32,4.6c-3.03,-0.34 -4.84,-0.89 -7.38,-2.62c-1.62,-2.38 -1.62,-2.38 -1.5,-6.07c0.29,-1.09 0.58,-2.18 0.88,-3.31c0.66,-0.33 1.32,-0.66 2,-1z" fill="#ffffff" id="svg_79"/>
  <path d="m951,200.33c0.33,0 0.66,0 1,0c0,16.83 0,33.66 0,51c-0.33,0 -0.66,0 -1,0c0,-16.83 0,-33.66 0,-51z" fill="#FDFDFD" id="svg_80"/>
  <path d="m1076,318.33c1.91,0.81 3.52,1.52 5,3c0.04,2 0.04,4 0,6c-1.98,0.99 -1.98,0.99 -4,2c-0.19,-0.9 -0.19,-0.9 -0.38,-1.81c-0.57,-2.45 -0.57,-2.45 -2.62,-5.19c0,-0.99 0,-1.98 0,-3c0.66,-0.33 1.32,-0.66 2,-1z" fill="#ffffff" id="svg_81"/>
  <path d="m804,333.33c3.25,2.83 4.52,4.69 5,9c-1.98,0 -3.96,0 -6,0c-0.62,-3.38 -0.62,-3.38 -1,-7c0.66,-0.66 1.32,-1.32 2,-2z" fill="#ffffff" id="svg_82"/>
  <path d="m1043,325.33c1.65,0 3.3,0 5,0c0,1.32 0,2.64 0,4c-0.66,0 -1.32,0 -2,0c-0.33,0.99 -0.66,1.98 -1,3c-1.88,-0.31 -1.88,-0.31 -4,-1c-0.66,-0.99 -1.32,-1.98 -2,-3c0.99,-0.33 1.98,-0.66 3,-1c0.33,-0.66 0.66,-1.32 1,-2z" fill="#ffffff" id="svg_83"/>
  <path d="m1071,318.33c0.66,0.66 1.32,1.32 2,2c-0.12,3.5 -0.12,3.5 -1,7c-2.06,1.44 -2.06,1.44 -4,2c0.23,-0.6 0.45,-1.2 0.69,-1.81c0.1,-0.72 0.2,-1.45 0.31,-2.19c-1.42,-1.58 -1.42,-1.58 -3,-3c0,-0.99 0,-1.98 0,-3c2.38,-0.62 2.38,-0.62 5,-1z" fill="#ffffff" id="svg_84"/>
  <path d="m532.38,318.15c2.34,0.17 4.38,0.52 6.62,1.19c0,0.99 0,1.98 0,3c-2.97,0 -5.93,0 -9,0c-0.32,0.66 -0.66,1.32 -1,2c-0.62,-1.88 -0.62,-1.88 -1,-4c2,-2 2,-2 4.38,-2.19z" fill="#ffffff" id="svg_85"/>
  <path d="m657,318.33c2.12,0.38 2.12,0.38 4,1c0,1.65 0,3.3 0,5c-1.65,0.33 -3.3,0.66 -5,1c-0.62,-2.38 -0.62,-2.38 -1,-5c0.66,-0.66 1.32,-1.32 2,-2z" fill="#ffffff" id="svg_86"/>
  <path d="m629,318.33c1.32,0.99 2.64,1.98 4,3c-0.66,1.32 -1.32,2.64 -2,4c-3,-1 -3,-1 -4.19,-3.06c-0.4,-0.96 -0.4,-0.96 -0.81,-1.94c0.99,-0.66 1.98,-1.32 3,-2z" fill="#ffffff" id="svg_87"/>
  <path d="m467.94,318.15c3.06,0.19 3.06,0.19 5.06,2.19c0.13,2.62 0.13,2.62 0,5c-1.11,-0.93 -1.11,-0.93 -2.25,-1.88c-2.24,-1.73 -4.18,-2.98 -6.75,-4.12c1,-1 1,-1 3.94,-1.19z" fill="#ffffff" id="svg_88"/>
  <path d="m474,335.33c1.33,2.67 0.67,4.17 0,7c-1.98,0 -3.96,0 -6,0c-0.33,-0.66 -0.66,-1.32 -1,-2c0.78,-0.45 1.57,-0.91 2.38,-1.38c2.66,-1.5 2.66,-1.5 4.62,-3.62z" fill="#ffffff" id="svg_89"/>
  <path d="m235,349.33c0.33,0 0.66,0 1,0c0,6.93 0,13.86 0,21c-0.33,0 -0.66,0 -1,0c0,-6.93 0,-13.86 0,-21z" fill="#FDFDFD" id="svg_90"/>
  <path d="m716,269.33c5.61,0 11.22,0 17,0c0,0.33 0,0.66 0,1c-5.61,0 -11.22,0 -17,0c0,-0.33 0,-0.66 0,-1z" fill="#FDFDFD" id="svg_91"/>
  <path d="m717,289.33c4.62,0 9.24,0 14,0c0,0.33 0,0.66 0,1c-4.62,0 -9.24,0 -14,0c0,-0.33 0,-0.66 0,-1z" fill="#FDFDFD" id="svg_92"/>
  <path d="m498,338.33c2.06,0.44 2.06,0.44 4,1c-0.33,0.99 -0.66,1.98 -1,3c-0.99,0 -1.98,0 -3,0c-0.33,-0.99 -0.66,-1.98 -1,-3c0.33,-0.33 0.66,-0.66 1,-1z" fill="#04070E" id="svg_93"/>
  <path d="m130,324.33c0.33,0 0.66,0 1,0c0,3.96 0,7.92 0,12c-0.33,0 -0.66,0 -1,0c0,-3.96 0,-7.92 0,-12z" fill="#FDFDFD" id="svg_94"/>
  <path d="m729,338.33c1.98,0.99 1.98,0.99 4,2c-0.33,0.66 -0.66,1.32 -1,2c-0.99,0 -1.98,0 -3,0c0,-1.32 0,-2.64 0,-4z" fill="#ffffff" id="svg_95"/>
  <path d="m493,328.33c0.33,0 0.66,0 1,0c0,3.63 0,7.26 0,11c-0.33,0 -0.66,0 -1,0c0,-3.63 0,-7.26 0,-11z" fill="#FDFDFD" id="svg_96"/>
  <path d="m817,262.33c3.63,0 7.26,0 11,0c0,0.33 0,0.66 0,1c-3.63,0 -7.26,0 -11,0c0,-0.33 0,-0.66 0,-1z" fill="#FDFDFD" id="svg_97"/>
  <path d="m558,262.33c3.63,0 7.26,0 11,0c0,0.33 0,0.66 0,1c-3.63,0 -7.26,0 -11,0c0,-0.33 0,-0.66 0,-1z" fill="#FDFDFD" id="svg_98"/>
  <path d="m720,242.33c3.63,0 7.26,0 11,0c0,0.33 0,0.66 0,1c-3.63,0 -7.26,0 -11,0c0,-0.33 0,-0.66 0,-1z" fill="#FDFDFD" id="svg_99"/>
  <path d="m724,329.33c0.33,0 0.66,0 1,0c0,3.3 0,6.6 0,10c-0.33,0 -0.66,0 -1,0c0,-3.3 0,-6.6 0,-10z" fill="#FDFDFD" id="svg_100"/>
  <path d="m554,228.33c0.33,0 0.66,0 1,0c0,3.3 0,6.6 0,10c-0.33,0 -0.66,0 -1,0c0,-3.3 0,-6.6 0,-10z" fill="#FDFDFD" id="svg_101"/>
  <path d="m1070,199.33c0.33,0 0.66,0 1,0c0,3.3 0,6.6 0,10c-0.33,0 -0.66,0 -1,0c0,-3.3 0,-6.6 0,-10z" fill="#FDFDFD" id="svg_102"/>
  <path d="m1050,262.33c2.97,0 5.94,0 9,0c0,0.33 0,0.66 0,1c-2.97,0 -5.94,0 -9,0c0,-0.33 0,-0.66 0,-1z" fill="#FDFDFD" id="svg_103"/>
  <path d="m364,508.33c0.33,0 0.66,0 1,0c0,2.64 0,5.28 0,8c-0.33,0 -0.66,0 -1,0c0,-2.64 0,-5.28 0,-8z" fill="#FDFDFD" id="svg_104"/>
  <path d="m691,332.33c0.33,0 0.66,0 1,0c0,2.64 0,5.28 0,8c-0.33,0 -0.66,0 -1,0c0,-2.64 0,-5.28 0,-8z" fill="#ffffff" id="svg_105"/>
  <path d="m983,262.33c2.64,0 5.28,0 8,0c0,0.33 0,0.66 0,1c-2.64,0 -5.28,0 -8,0c0,-0.33 0,-0.66 0,-1z" fill="#FDFDFD" id="svg_106"/>
  <path d="m143,492.33c0.33,0 0.66,0 1,0c0,2.31 0,4.62 0,7c-0.33,0 -0.66,0 -1,0c0,-2.31 0,-4.62 0,-7z" fill="#FDFDFD" id="svg_107"/>
  <path d="m641,289.33c2.31,0 4.62,0 7,0c0,0.33 0,0.66 0,1c-2.31,0 -4.62,0 -7,0c0,-0.33 0,-0.66 0,-1z" fill="#FDFDFD" id="svg_108"/>
  <path d="m368,468.33c0.33,0 0.66,0 1,0c0,1.98 0,3.96 0,6c-0.33,0 -0.66,0 -1,0c0,-1.98 0,-3.96 0,-6z" fill="#FDFDFD" id="svg_109"/>
  <path d="m373,466.33c1.98,0 3.96,0 6,0c0,0.33 0,0.66 0,1c-1.98,0 -3.96,0 -6,0c0,-0.33 0,-0.66 0,-1z" fill="#FDFDFD" id="svg_110"/>
  <path d="m121,463.33c1.98,0 3.96,0 6,0c0,0.33 0,0.66 0,1c-1.98,0 -3.96,0 -6,0c0,-0.33 0,-0.66 0,-1z" fill="#FDFDFD" id="svg_111"/>
  <path d="m140,456.33c0.33,0 0.66,0 1,0c0,1.98 0,3.96 0,6c-0.33,0 -0.66,0 -1,0c0,-1.98 0,-3.96 0,-6z" fill="#FDFDFD" id="svg_112"/>
  <path d="m381,333.33c0.33,0 0.66,0 1,0c0,1.98 0,3.96 0,6c-0.33,0 -0.66,0 -1,0c0,-1.98 0,-3.96 0,-6z" fill="#FDFDFD" id="svg_113"/>
  <path d="m707,330.33c0.33,0 0.66,0 1,0c0,1.98 0,3.96 0,6c-0.33,0 -0.66,0 -1,0c0,-1.98 0,-3.96 0,-6z" fill="#FDFDFD" id="svg_114"/>
  <path d="m463,342.33c1.65,0 3.3,0 5,0c0,0.33 0,0.66 0,1c-1.65,0 -3.3,0 -5,0c0,-0.33 0,-0.66 0,-1z" fill="#000204" id="svg_115"/>
  <path d="m367,480.33c1,4 1,4 1,4l-1,-4z" fill="#FDFDFD" id="svg_116"/>
  <path d="m570,341.33c0.66,0.66 1.32,1.32 2,2c-0.99,-0.33 -1.98,-0.66 -3,-1c0.33,-0.33 0.66,-0.66 1,-1z" fill="#3F4042" id="svg_117"/>
  <path d="m533,341.33c0.66,0.66 1.32,1.32 2,2c-0.99,-0.33 -1.98,-0.66 -3,-1c0.33,-0.33 0.66,-0.66 1,-1z" fill="#3F4042" id="svg_118"/>
  <path d="m455,341.33c0.66,0.66 1.32,1.32 2,2c-0.99,-0.33 -1.98,-0.66 -3,-1c0.33,-0.33 0.66,-0.66 1,-1z" fill="#000204" id="svg_119"/>
  <path d="m534,323.33c4,1 4,1 4,1l-4,-1z" fill="#FDFDFD" id="svg_120"/>
  <path d="m384,303.33c1,4 1,4 1,4l-1,-4z" fill="#FDFDFD" id="svg_121"/>
  <path d="m385,294.33c1,4 1,4 1,4l-1,-4z" fill="#FDFDFD" id="svg_122"/>
  <path d="m754,267.33c1,4 1,4 1,4l-1,-4z" fill="#FDFDFD" id="svg_123"/>
  <path d="m717,204.33c0.66,0 1.32,0 2,0c0,0.66 0,1.32 0,2c-0.66,0 -1.32,0 -2,0c0,-0.66 0,-1.32 0,-2z" fill="#0F1426" id="svg_124"/>
  <path d="m1027,342.33c3,1 3,1 3,1l-3,-1z" fill="#000204" id="svg_125"/>
  <path d="m854,342.33c3,1 3,1 3,1l-3,-1z" fill="#000204" id="svg_126"/>
  <path d="m732,342.33c3,1 3,1 3,1l-3,-1z" fill="#000204" id="svg_127"/>
  <path d="m698,342.33c3,1 3,1 3,1l-3,-1z" fill="#000204" id="svg_128"/>
  <path d="m501,342.33c3,1 3,1 3,1l-3,-1z" fill="#000204" id="svg_129"/>
  <path d="m448,330.33c3,1 3,1 3,1l-3,-1z" fill="#ffffff" id="svg_130"/>
  <path d="m440,330.33c3,1 3,1 3,1l-3,-1z" fill="#FDFDFD" id="svg_131"/>
  <path d="m1074,329.33c3,1 3,1 3,1l-3,-1z" fill="#141A31" id="svg_132"/>
  <path fill="#FDFDFD" id="svg_133"/>
  <path d="m391,288.33c0.99,0.5 0.99,0.5 2,1c-0.99,0.5 -0.99,0.5 -2,1c0,-0.66 0,-1.32 0,-2z" fill="#141A31" id="svg_134"/>
  <path fill="#FDFDFD" id="svg_135"/>
  <path fill="#FDFDFD" id="svg_136"/>
  <path fill="#FDFDFD" id="svg_137"/>
  <path d="m750,351.33c2,1 2,1 2,1l-2,-1z" fill="#FDFDFD" id="svg_138"/>
  <path d="m1064,342.33c2,1 2,1 2,1l-2,-1z" fill="#000204" id="svg_139"/>
  <path d="m992,342.33c2,1 2,1 2,1l-2,-1z" fill="#000204" id="svg_140"/>
  <path d="m843,342.33c2,1 2,1 2,1l-2,-1z" fill="#000204" id="svg_141"/>
  <path d="m633,342.33c2,1 2,1 2,1l-2,-1z" fill="#000204" id="svg_142"/>
  <path d="m578,342.33c2,1 2,1 2,1l-2,-1z" fill="#000204" id="svg_143"/>
  <path d="m541,342.33c2,1 2,1 2,1l-2,-1z" fill="#000204" id="svg_144"/>
  <path fill="#FDFDFD" id="svg_145"/>
  <path d="m260,337.33c2,1 2,1 2,1l-2,-1z" fill="#FDFDFD" id="svg_146"/>
  <path fill="#000204" id="svg_147"/>
  <path d="m269,334.33c2,1 2,1 2,1l-2,-1z" fill="#FDFDFD" id="svg_148"/>
  <path d="m231,334.33c2,1 2,1 2,1l-2,-1z" fill="#FDFDFD" id="svg_149"/>
  <path d="m882,326.33c2,1 2,1 2,1l-2,-1z" fill="#000204" id="svg_150"/>
  <path d="m884,323.33c2,1 2,1 2,1l-2,-1z" fill="#FDFDFD" id="svg_151"/>
  <path fill="#FDFDFD" id="svg_152"/>
  <path d="m386,293.33c2,1 2,1 2,1l-2,-1z" fill="#FDFDFD" id="svg_153"/>
  <path d="m1003,262.33c2,1 2,1 2,1l-2,-1z" fill="#FDFDFD" id="svg_154"/>
  <path d="m1022,259.33c2,1 2,1 2,1l-2,-1z" fill="#FDFDFD" id="svg_155"/>
  <path fill="#FDFDFD" id="svg_156"/>
  <path fill="#000204" id="svg_157"/>
  <path fill="#000204" id="svg_158"/>
  <path d="m509,218.33c2,1 2,1 2,1l-2,-1z" fill="#FDFDFD" id="svg_159"/>
  <path fill="#FDFDFD" id="svg_160"/>
  <path fill="#FDFDFD" id="svg_161"/>
  <path fill="#FDFDFD" id="svg_162"/>
  <path fill="#FDFDFD" id="svg_163"/>
  <path fill="#FDFDFD" id="svg_164"/>
  <path fill="#FDFDFD" id="svg_165"/>
  <path fill="#FDFDFD" id="svg_166"/>
  <path fill="#FDFDFD" id="svg_167"/>
  <path fill="#FDFDFD" id="svg_168"/>
  <path fill="#FDFDFD" id="svg_169"/>
  <path fill="#000204" id="svg_170"/>
  <path fill="#FDFDFD" id="svg_171"/>
  <path fill="#000204" id="svg_172"/>
  <path fill="#000204" id="svg_173"/>
  <path fill="#000204" id="svg_174"/>
  <path fill="#000204" id="svg_175"/>
  <path fill="#FDFDFD" id="svg_176"/>
  <path fill="#000204" id="svg_177"/>
  <path fill="#3C4C8D" id="svg_178"/>
  <path fill="#000204" id="svg_179"/>
  <path fill="#000204" id="svg_180"/>
  <path fill="#3C4C8D" id="svg_181"/>
  <path fill="#000204" id="svg_182"/>
  <path fill="#3C4C8D" id="svg_183"/>
  <path fill="#000204" id="svg_184"/>
  <path fill="#000204" id="svg_185"/>
  <path fill="#FDFDFD" id="svg_186"/>
  <path fill="#000204" id="svg_187"/>
  <path fill="#000204" id="svg_188"/>
  <path fill="#000204" id="svg_189"/>
  <path fill="#000204" id="svg_190"/>
  <path fill="#000204" id="svg_191"/>
  <path fill="#FDFDFD" id="svg_192"/>
  <path fill="#FDFDFD" id="svg_193"/>
  <path fill="#FDFDFD" id="svg_194"/>
  <path fill="#000204" id="svg_195"/>
  <path fill="#000204" id="svg_196"/>
  <path fill="#000204" id="svg_197"/>
  <path fill="#FDFDFD" id="svg_198"/>
  <path fill="#FDFDFD" id="svg_199"/>
  <path fill="#000204" id="svg_200"/>
  <path fill="#000204" id="svg_201"/>
  <path fill="#000204" id="svg_202"/>
  <path fill="#000204" id="svg_203"/>
  <path fill="#000204" id="svg_204"/>
  <path fill="#000204" id="svg_205"/>
  <path fill="#000204" id="svg_206"/>
  <path fill="#FDFDFD" id="svg_207"/>
  <path fill="#000204" id="svg_208"/>
  <path fill="#000204" id="svg_209"/>
  <path fill="#FDFDFD" id="svg_210"/>
  <path fill="#FDFDFD" id="svg_211"/>
  <path fill="#FDFDFD" id="svg_212"/>
  <path fill="#FDFDFD" id="svg_213"/>
  <path fill="#FDFDFD" id="svg_214"/>
  <path fill="#FDFDFD" id="svg_215"/>
  <path fill="#3C4C8D" id="svg_216"/>
  <path fill="#000204" id="svg_217"/>
  <path fill="#000204" id="svg_218"/>
  <path fill="#000204" id="svg_219"/>
  <path fill="#000204" id="svg_220"/>
  <path fill="#FDFDFD" id="svg_221"/>
  <path fill="#FDFDFD" id="svg_222"/>
  <path fill="#FDFDFD" id="svg_223"/>
  <path fill="#3C4C8D" id="svg_224"/>
  <use id="svg_228" transform="matrix(4.19932 0 0 4.19932 0 0)" x="22.62" xlink:href="#svg_227" y="-17.07"/>
  <path d="m265.5,472.33c0.33,0.69 0.65,1.39 0.99,2.1c27.72,0 55.45,0 84.01,0c0,6.24 0,12.47 0,18.9c-28.05,0 -56.1,0 -85,0c0,-6.93 0,-13.86 0,-21z" fill="#D4251E" id="svg_231"/>
  <path d="m151.5,348.83c10.53,-0.02 21.05,-0.04 31.58,-0.05c4.89,-0.01 9.77,-0.01 14.66,-0.03c4.72,-0.01 9.43,-0.01 14.14,-0.01c1.8,-0.01 3.61,-0.01 5.41,-0.02c2.51,0 5.03,0 7.55,0c0.75,-0.01 1.5,-0.01 2.27,-0.01c5.16,0.01 5.16,0.01 7.39,1.12c0,6.6 0,13.2 0,20c-10.8,0.02 -21.61,0.04 -32.41,0.05c-5.02,0.01 -10.04,0.01 -15.05,0.03c-4.84,0.01 -9.68,0.01 -14.51,0.01c-1.85,0.01 -3.7,0.01 -5.55,0.02c-2.58,0 -5.17,0 -7.75,0c-0.77,0.01 -1.54,0.01 -2.34,0.01c-5.28,-0.01 -5.28,-0.01 -6.39,-1.12c-0.02,-1.49 0.04,-2.98 0.12,-4.47c0.05,-0.9 0.1,-1.8 0.15,-2.73c0.05,-0.94 0.11,-1.89 0.17,-2.86c0.05,-0.95 0.1,-1.9 0.16,-2.88c0.13,-2.35 0.26,-4.71 0.4,-7.06z" fill="#000000" id="svg_232"/>
  <path d="m267.5,350.67c9.9,0 19.8,0 30,0c0,19.14 0,38.28 0,58c-9.36,2.18 -19.27,1 -28.93,1c-0.35,-19.47 -0.71,-38.94 -1.07,-59z" fill="#3C4C8D" id="svg_233"/>
  <path d="m298.5,350.67c10.23,0 20.46,0 31,0c0,19.46 0,38.93 0,58.98c-9.68,2.22 -19.92,1.02 -29.89,1.02c-0.37,-19.8 -0.73,-39.6 -1.11,-59.99l0,-0.01z" fill="#ffffff" id="svg_234"/>
 </g>
 <defs>
  <symbol id="svg_227" viewBox="0 0 51.04 49.47" xmlns="http://www.w3.org/2000/svg">
   <defs>
    <style>.cls-1,.cls-2,.cls-4{fill:none;}.cls-2,.cls-4{stroke:#fff;}.cls-2{stroke-miterlimit:10;}.cls-3,.cls-5{fill:#fff;}.cls-4,.cls-5{stroke-linejoin:round;}.cls-4{stroke-width:2px;}.cls-5{stroke:#f9ba00;stroke-linecap:round;stroke-width:3px;}</style>
   </defs>
   <g data-name="Calque 2" id="svg_225">
    <g data-name="Calque 1" id="svg_226">
     <polyline class="cls-1" id="svg_2" points="6.8 0 51.04 0 51.04 49.47 0 49.47 0 0 6.8 0"/>
     <line class="cls-2" id="svg_4" x1="9.53" x2="18.96" y1="42.22" y2="30.78"/>
     <circle class="cls-3" cx="18.96" cy="30.78" id="svg_7" r="1.91"/>
     <polyline class="cls-4" id="svg_11" points="27.4 7.78 21.98 20.24 12.52 25 9.53 42.22 25.4 35.88 28.76 25.77 41.1 15.62"/>
     <line class="cls-5" id="svg_12" x1="43.31" x2="34.06" y1="37.35" y2="37.35"/>
    </g>
   </g>
  </symbol>
 </defs>
</svg>